<?xml version="1.0" encoding="UTF-8"?>
<svg xmlns="http://www.w3.org/2000/svg" viewBox="0 0 1000.63 1256.88">
  <g isolation="isolate">
    <g id="logo">
      <g>
        <g>
          <path d="M35.41,1223.21c0-.07.03-.16.08-.26.04-.1.15-.14.31-.14.62,0,1.41-.03,2.35-.1.95-.07,1.96-.18,3.02-.37,1.06-.18,2.13-.44,3.2-.77,1.08-.33,2.04-.72,2.89-1.22.85-.5,1.55-1.08,2.08-1.76.54-.69.81-1.5.81-2.45v-50.26c0-1.66-.24-2.96-.73-3.9-.5-.92-1.16-1.62-1.99-2.08-.84-.45-1.81-.74-2.92-.85-1.11-.11-2.3-.17-3.58-.17h-2.79c-.16,0-.27-.06-.32-.16-.05-.09-.07-.17-.07-.24v-1.96c0-.07.02-.16.07-.24.05-.1.16-.16.32-.16.04,0,.21,0,.52-.03.31-.01.86-.01,1.64-.01s1.84-.01,3.18-.03c1.34-.01,3.09-.03,5.25-.03.45,0,1.25-.01,2.38-.04s2.42-.07,3.87-.1c1.45-.03,2.99-.07,4.61-.13,1.62-.04,3.16-.09,4.61-.11,1.45-.04,2.76-.07,3.9-.1,1.14-.04,1.98-.06,2.5-.06,1.67,0,3.52.06,5.56.17s4.11.37,6.18.77c2.08.4,4.1.95,6.06,1.69,1.96.74,3.7,1.72,5.23,2.95,1.52,1.22,2.74,2.74,3.65,4.52.91,1.8,1.37,3.96,1.37,6.48,0,1.5-.23,2.88-.71,4.11-.48,1.25-1.08,2.35-1.82,3.32-.73.96-1.52,1.79-2.38,2.5-.85.69-1.64,1.29-2.38,1.76-.74.48-1.38.84-1.91,1.06s-.84.35-.91.38c1.86,1.05,3.64,2.2,5.32,3.43,1.69,1.25,3.16,2.64,4.44,4.2,1.28,1.55,2.28,3.26,3.01,5.12.74,1.86,1.11,3.93,1.11,6.18,0,2.64-.36,4.98-1.08,7.01-.72,2.03-1.67,3.79-2.84,5.29-1.18,1.5-2.52,2.78-4.05,3.8-1.52,1.04-3.08,1.89-4.68,2.55-1.6.67-3.2,1.19-4.78,1.57-1.59.37-3.03.64-4.34.81-1.3.16-2.41.26-3.31.3-.9.03-1.47.04-1.74.04h-39.81c-.16,0-.27-.04-.31-.14-.05-.1-.08-.18-.08-.26v-1.9ZM73.06,1183.74c1.57,0,3.03-.3,4.39-.87,1.35-.57,2.53-1.36,3.53-2.38.99-1.01,1.78-2.21,2.35-3.6.57-1.39.86-2.89.86-4.54,0-2.48-.3-4.52-.91-6.14-.6-1.62-1.5-2.91-2.67-3.86-1.18-.95-2.64-1.6-4.39-1.99-1.74-.37-3.76-.57-6.06-.57-.49,0-1.07.04-1.74.1-.67.07-1.32.2-1.94.37-.62.18-1.15.44-1.57.77-.42.33-.63.75-.63,1.28v20.49c0,.1.05.27.14.54.1.26.43.4.99.4h7.64ZM64.38,1212.46c0,1.28.33,2.44.99,3.46.65,1.04,1.48,1.91,2.5,2.65,1.01.74,2.15,1.3,3.41,1.72,1.25.41,2.51.61,3.75.61,2.09,0,3.94-.4,5.54-1.18s2.93-1.87,3.97-3.29c1.05-1.4,1.84-3.08,2.38-5.02.54-1.94.81-4.07.81-6.4,0-2.78-.43-5.22-1.28-7.3-.85-2.1-2.04-3.84-3.58-5.25s-3.37-2.45-5.49-3.16c-2.13-.71-4.46-1.05-7.01-1.05h-5.35c-.33,0-.51.06-.56.17s-.08.23-.08.37v23.67Z"/>
          <path d="M111.01,1225.5c-.2-.07-.33-.28-.39-.67-.07-.37-.1-.65-.1-.85,0-.17.05-.43.15-.78.09-.37.21-.58.34-.64.43-.2,1.03-.35,1.82-.47.78-.11,1.57-.34,2.35-.69.78-.34,1.47-.88,2.06-1.62s.89-1.82.89-3.26v-23.53c0-.78-.21-1.4-.64-1.84s-.96-.77-1.62-1.01c-.66-.23-1.36-.41-2.11-.55-.75-.16-1.47-.33-2.16-.52-.2-.06-.35-.16-.47-.27s-.17-.34-.17-.71c0-.16.05-.33.15-.48.1-.17.29-.33.59-.5l16.22-7.64c.13-.07.27-.13.42-.2s.26-.1.32-.1c.55,0,.84.4.84,1.18v36.17c0,1.45.29,2.52.88,3.26s1.28,1.28,2.06,1.62c.78.35,1.57.58,2.35.69.79.11,1.39.27,1.82.47.13.06.25.27.35.64.09.35.14.61.14.78,0,.2-.03.48-.09.85-.07.38-.2.6-.4.67h-25.59ZM116.01,1161.44c0-2.1.62-3.76,1.86-5.01,1.24-1.25,2.91-1.86,5-1.86s3.76.61,5,1.86c1.25,1.25,1.86,2.91,1.86,5.01s-.62,3.74-1.86,4.96c-1.24,1.23-2.91,1.84-5,1.84s-3.76-.61-5-1.84c-1.24-1.22-1.86-2.88-1.86-4.96Z"/>
          <path d="M143.22,1202.62c0-3.08.67-6.03,2.03-8.83,1.35-2.81,3.18-5.29,5.46-7.44,2.29-2.16,4.96-3.87,7.99-5.15,3.04-1.28,6.25-1.91,9.61-1.91s6.88.61,10.05,1.82c3.17,1.21,5.96,2.86,8.36,4.98,2.4,2.1,4.3,4.59,5.71,7.44,1.41,2.86,2.11,5.96,2.11,9.29s-.65,6.57-1.94,9.49c-1.3,2.94-3.08,5.47-5.37,7.63-2.29,2.16-5.01,3.84-8.17,5.08-3.16,1.22-6.59,1.83-10.32,1.83s-7.1-.62-10.22-1.89c-3.12-1.25-5.81-2.96-8.09-5.15-2.27-2.17-4.04-4.72-5.32-7.67-1.28-2.94-1.91-6.11-1.91-9.5ZM155.77,1199.52c0,1.76.13,3.59.39,5.46.26,1.89.65,3.72,1.18,5.49.52,1.79,1.18,3.46,1.99,5.03.8,1.56,1.76,2.95,2.86,4.14,1.11,1.19,2.38,2.13,3.78,2.82,1.4.68,2.99,1.02,4.75,1.02,1.93,0,3.59-.5,4.98-1.49,1.39-.99,2.53-2.3,3.43-3.9.9-1.6,1.56-3.4,1.99-5.39.43-2,.64-3.98.64-5.98,0-1.6-.15-3.29-.44-5.08-.3-1.77-.74-3.55-1.33-5.29-.59-1.76-1.3-3.43-2.16-5.03-.85-1.59-1.84-3.01-2.96-4.24-1.13-1.22-2.39-2.2-3.78-2.91-1.39-.72-2.9-1.08-4.53-1.08-1.83,0-3.42.5-4.78,1.49-1.36.99-2.48,2.28-3.36,3.87s-1.55,3.35-1.99,5.3c-.44,1.94-.66,3.86-.66,5.76Z"/>
          <path d="M225.77,1224.03c0,.2-.04.48-.1.84s-.2.57-.39.64h-25.6c-.19-.07-.33-.28-.39-.64s-.1-.64-.1-.84c0-.16.05-.43.15-.78s.21-.57.34-.64c.43-.2,1.04-.35,1.82-.47.79-.11,1.57-.34,2.35-.68.79-.34,1.47-.88,2.06-1.62.59-.74.88-1.83.88-3.26v-57.16c0-.78-.21-1.4-.64-1.84s-.96-.78-1.62-1.01c-.65-.23-1.35-.41-2.11-.55-.75-.16-1.47-.33-2.16-.52-.43-.16-.63-.61-.63-1.38,0-.16.04-.38.14-.65.1-.28.3-.5.59-.67l16.23-7.64c.13-.07.28-.13.44-.2s.34-.1.54-.1c.26,0,.43.09.49.27s.1.48.1.91v70.55c0,1.43.3,2.52.89,3.26.59.74,1.27,1.28,2.06,1.62.79.34,1.57.57,2.35.68.78.11,1.39.27,1.82.47.13.07.24.28.34.64s.15.62.15.78Z"/>
          <path d="M226.56,1202.62c0-3.08.67-6.03,2.03-8.83,1.35-2.81,3.18-5.29,5.46-7.44,2.29-2.16,4.96-3.87,7.99-5.15,3.04-1.28,6.25-1.91,9.61-1.91s6.88.61,10.05,1.82c3.17,1.21,5.96,2.86,8.36,4.98,2.4,2.1,4.3,4.59,5.71,7.44,1.41,2.86,2.11,5.96,2.11,9.29s-.65,6.57-1.94,9.49c-1.3,2.94-3.08,5.47-5.37,7.63-2.29,2.16-5.01,3.84-8.17,5.08-3.16,1.22-6.59,1.83-10.32,1.83s-7.1-.62-10.22-1.89c-3.12-1.25-5.81-2.96-8.09-5.15-2.27-2.17-4.04-4.72-5.32-7.67-1.28-2.94-1.91-6.11-1.91-9.5ZM239.11,1199.52c0,1.76.13,3.59.39,5.46.26,1.89.65,3.72,1.18,5.49.52,1.79,1.18,3.46,1.99,5.03.8,1.56,1.76,2.95,2.86,4.14,1.11,1.19,2.38,2.13,3.78,2.82,1.4.68,2.99,1.02,4.75,1.02,1.93,0,3.59-.5,4.98-1.49,1.39-.99,2.53-2.3,3.43-3.9s1.56-3.4,1.99-5.39c.43-2,.64-3.98.64-5.98,0-1.6-.15-3.29-.44-5.08-.3-1.77-.74-3.55-1.33-5.29-.59-1.76-1.3-3.43-2.16-5.03-.85-1.59-1.84-3.01-2.96-4.24-1.13-1.22-2.39-2.2-3.78-2.91-1.39-.72-2.9-1.08-4.53-1.08-1.83,0-3.42.5-4.78,1.49-1.36.99-2.48,2.28-3.36,3.87-.88,1.59-1.55,3.35-1.99,5.3-.44,1.94-.66,3.86-.66,5.76Z"/>
          <path d="M308.47,1179.27c3.14,0,5.95.41,8.43,1.22,2.49.82,4.56,2.01,6.23,3.59,2.06-.07,4.03-.18,5.91-.34,1.88-.17,3.89-.26,6.05-.26.75,0,1.37.03,1.84.07.48.06.84.14,1.1.26s.46.26.59.44c.13.18.23.4.3.67.23.81.39,1.55.49,2.2s.15,1.32.15,2.01c0,.55-.21.92-.62,1.11-.4.17-1.23.27-2.47.27h-8.97c.45.75.91,1.63,1.35,2.64.44,1.02.66,2.31.66,3.87,0,2.25-.5,4.45-1.52,6.59-1.01,2.14-2.5,4.03-4.46,5.67-1.96,1.63-4.36,2.95-7.18,3.94-2.83.99-6.06,1.49-9.69,1.49-1.11,0-2.01-.03-2.69-.11s-1.4-.23-2.16-.43c-.46.4-1.03.75-1.72,1.06s-1.36.65-2.01,1.05c-.65.4-1.21.84-1.67,1.35-.45.51-.69,1.15-.69,1.94,0,1.36,1.21,2.35,3.61,2.96,2.4.61,6.28.92,11.64.95,4.08.04,7.8.16,11.15.34,3.35.2,6.22.72,8.6,1.55,2.39.84,4.23,2.13,5.54,3.87,1.31,1.76,1.96,4.2,1.96,7.33,0,1.3-.31,2.72-.93,4.24-.62,1.53-1.57,3.03-2.82,4.54-1.25,1.5-2.84,2.95-4.73,4.34-1.9,1.39-4.13,2.61-6.69,3.67-2.57,1.06-5.47,1.91-8.7,2.55-3.24.64-6.8.96-10.69.96-3.43,0-6.42-.34-8.97-1.01-2.55-.68-4.66-1.56-6.32-2.68-1.67-1.11-2.91-2.37-3.75-3.8-.83-1.42-1.25-2.88-1.25-4.38,0-1.15.23-2.17.69-3.09.45-.91,1.06-1.76,1.82-2.52.75-.77,1.59-1.49,2.52-2.16.93-.67,1.87-1.36,2.81-2.06.95-.71,1.86-1.45,2.74-2.21.89-.77,1.65-1.64,2.3-2.62-1.73-.23-3.3-.64-4.73-1.22-1.42-.6-2.63-1.28-3.62-2.06-1-.79-1.78-1.64-2.33-2.58-.55-.94-.83-1.87-.83-2.82,0-.88.23-1.64.71-2.3s1.09-1.23,1.86-1.74c.77-.51,1.64-.96,2.62-1.39.99-.43,2-.84,3.04-1.23.65-.26,1.35-.54,2.08-.85.74-.31,1.5-.75,2.28-1.3-3.89-1.57-6.83-3.62-8.83-6.13-1.99-2.52-2.99-5.43-2.99-8.72,0-2.62.59-5.08,1.77-7.36,1.18-2.28,2.79-4.27,4.86-5.96,2.06-1.69,4.48-3.01,7.27-3.97,2.8-.96,5.81-1.45,9.05-1.45ZM294.55,1240.99c0,1.38.42,2.77,1.25,4.15.83,1.39,1.96,2.64,3.38,3.74,1.42,1.11,3.1,2.01,5.03,2.72,1.92.69,3.98,1.05,6.18,1.05s4.51-.38,6.66-1.15c2.16-.77,4.07-1.79,5.74-3.06,1.67-1.28,3.01-2.75,4.02-4.44,1.01-1.69,1.52-3.45,1.52-5.28,0-1.08-.17-2.03-.51-2.84-.35-.82-.81-1.5-1.4-2.06-.59-.57-1.28-1.01-2.06-1.33-.78-.33-1.6-.52-2.45-.58-.69-.07-1.84-.13-3.43-.17-1.6-.06-3.4-.11-5.4-.17-1.21-.04-2.4-.06-3.58-.09-1.18-.01-2.26-.03-3.26-.07-.99-.03-1.89-.06-2.69-.1-.8-.03-1.43-.07-1.89-.14-.62.72-1.34,1.4-2.16,2.03-.82.64-1.6,1.33-2.33,2.07-.73.74-1.35,1.56-1.86,2.47-.51.92-.77,2-.77,3.23ZM317.74,1198.09c0-2.51-.26-4.75-.79-6.74-.52-1.97-1.26-3.64-2.23-4.99-.96-1.36-2.11-2.4-3.41-3.09-1.3-.71-2.74-1.06-4.31-1.06-.95,0-1.99.2-3.11.57-1.13.38-2.18,1.06-3.16,2.06-.99,1.01-1.8,2.37-2.45,4.1-.65,1.73-.98,3.96-.98,6.66,0,1.73.19,3.55.59,5.45.39,1.9,1.02,3.64,1.89,5.25s1.99,2.92,3.35,3.94c1.38,1.04,3.04,1.55,5.01,1.55,1.47,0,2.79-.34,3.97-1.01,1.18-.67,2.18-1.6,3.01-2.79.83-1.19,1.47-2.62,1.94-4.31.46-1.69.69-3.55.69-5.57Z"/>
          <path d="M363.82,1224.52c-1.08.75-2.35,1.33-3.82,1.76-1.47.43-2.94.64-4.41.64-3.99,0-7.02-.89-9.1-2.69s-3.11-4.23-3.11-7.3c0-1.76.4-3.29,1.2-4.57.8-1.26,1.99-2.4,3.56-3.37,1.57-.98,3.5-1.87,5.81-2.67,2.3-.81,4.98-1.6,8.01-2.38,1.64-.43,2.95-.88,3.95-1.38,1-.48,1.92-.96,2.77-1.42.55-.3.87-.55.96-.78.08-.24.12-.45.12-.64v-8.54c0-1.08-.16-2.08-.47-3.02-.31-.92-.77-1.73-1.4-2.42-.62-.68-1.37-1.22-2.25-1.62-.88-.38-1.88-.58-2.99-.58-.94,0-1.83.16-2.64.48s-1.52.81-2.11,1.43c-.59.61-1.06,1.35-1.4,2.2-.35.85-.52,1.82-.52,2.89,0,.1,0,.24.02.44.02.2.04.4.08.61.03.21.06.41.1.57.03.17.05.27.05.3-.04.07-.3.2-.82.4-.5.18-1.13.41-1.86.65-.74.26-1.55.5-2.43.74-.88.24-1.72.48-2.52.71s-1.5.44-2.11.61c-.6.18-1.02.3-1.25.33-.36,0-.58-.18-.67-.57-.08-.37-.12-.74-.12-1.11,0-1.89.57-3.74,1.72-5.53,1.14-1.8,2.67-3.39,4.59-4.78,1.91-1.39,4.11-2.51,6.59-3.36,2.48-.85,5.05-1.28,7.69-1.28,2.35,0,4.46.3,6.32.91s3.45,1.43,4.76,2.5c1.3,1.06,2.3,2.3,2.98,3.69.69,1.38,1.04,2.86,1.04,4.42v23.38c0,.85.32,1.62.95,2.28.64.67,1.47,1.01,2.48,1.01.59,0,1.11-.1,1.59-.31s.9-.47,1.28-.74c.38-.28.69-.52.96-.74s.49-.33.69-.33c.26,0,.4.11.44.33s.05.4.05.57c0,.55-.07,1.12-.22,1.69s-.4.99-.76,1.25c-1.6,1.21-3.03,2.3-4.27,3.26-1.24.96-2.37,1.79-3.38,2.48-1.01.68-1.93,1.21-2.74,1.56-.82.35-1.59.54-2.3.54-.65,0-1.23-.18-1.74-.54-.5-.35-.94-.79-1.32-1.32-.38-.52-.69-1.09-.96-1.69-.26-.61-.48-1.18-.66-1.7-.18-.52-.32-.95-.42-1.28s-.18-.47-.25-.44l-5.74,4.47ZM354.8,1215.75c0,.88.17,1.6.52,2.16.34.55.79.98,1.35,1.28.55.3,1.18.5,1.89.61s1.43.17,2.18.17c.68,0,1.53-.17,2.55-.51,1.01-.34,2-.79,2.96-1.38.96-.57,1.79-1.22,2.48-1.96.68-.74,1.03-1.47,1.03-2.23v-8.1c0-.35-.13-.54-.39-.54-.07,0-.13.01-.2.06l-11.37,5.29c-.46.33-.88.62-1.25.91s-.69.61-.95.98c-.26.38-.46.82-.59,1.32-.13.51-.2,1.16-.2,1.94Z"/>
          <path d="M436.72,1177.96c.13-.07.27-.14.42-.2.15-.07.26-.1.32-.1.55,0,.83.4.83,1.18v7.64c.1.33.23.5.4.5s.29-.01.39-.03.23-.07.39-.17c2.09-1.08,3.86-1.99,5.32-2.72,1.46-.74,2.72-1.36,3.78-1.86,1.06-.51,2.01-.91,2.84-1.18.83-.28,1.67-.5,2.52-.64.85-.16,1.78-.24,2.79-.27,1.01-.04,2.25-.06,3.73-.06,1.6,0,2.98.34,4.16,1.04,1.18.68,2.17,1.59,2.97,2.72.79,1.12,1.45,2.41,1.96,3.87.51,1.45.89,2.94,1.16,4.45.26,1.53.44,3.03.54,4.51.1,1.49.14,2.84.14,4.06,0,1.13-.02,2.2-.07,3.18-.05.99-.1,2.06-.15,3.22s-.1,2.47-.14,3.94c-.05,1.47-.08,3.26-.08,5.35,0,.98.18,1.8.54,2.45s.83,1.19,1.4,1.62c.57.43,1.21.74,1.89.95.68.21,1.35.38,2.01.52.65.13,1.25.23,1.79.31.54.09.96.18,1.25.33.13.06.24.27.34.64.1.35.15.61.15.78,0,.2-.04.48-.1.85-.06.38-.2.6-.39.67h-27.35c-.2-.07-.33-.28-.4-.67-.06-.37-.1-.65-.1-.85,0-.17.05-.43.15-.78.1-.37.21-.58.35-.64.42-.2.99-.35,1.69-.47s1.43-.37,2.16-.77c.74-.4,1.4-.99,2.01-1.79.6-.79,1.01-1.99,1.2-3.56.06-.48.12-.94.17-1.36s.09-.87.13-1.3c.03-.44.06-.92.07-1.45.01-.52.03-1.13.03-1.82,0-1.47-.02-3.03-.05-4.71-.04-1.66-.05-3.53-.05-5.59,0-1.6-.08-3.19-.22-4.75-.15-1.57-.51-2.98-1.08-4.23-.57-1.23-1.41-2.25-2.52-3.03-1.11-.78-2.64-1.18-4.61-1.18-.68,0-1.3.04-1.84.13-.54.07-1.19.27-1.96.55-.77.3-1.78.74-3.02,1.33-1.24.58-2.91,1.39-5,2.4-.26.17-.53.35-.81.57-.28.21-.43.48-.47.81v24.02c0,1.47.3,2.6.89,3.36.59.77,1.28,1.32,2.06,1.66.79.35,1.57.58,2.35.69s1.39.27,1.82.47c.13.06.24.27.34.64.1.35.15.61.15.78,0,.2-.04.48-.1.85-.06.38-.19.6-.39.67h-25.59c-.2-.07-.33-.28-.4-.67-.06-.37-.09-.65-.09-.85,0-.17.04-.43.14-.78.1-.37.21-.58.35-.64.43-.2,1.03-.35,1.82-.47.78-.11,1.57-.34,2.35-.69.79-.34,1.47-.89,2.06-1.66s.88-1.89.88-3.36v-24.9c0-.79-.21-1.4-.64-1.84s-.96-.78-1.62-1.01-1.35-.41-2.11-.55c-.75-.16-1.47-.33-2.16-.52-.2-.06-.35-.16-.47-.27s-.17-.35-.17-.71c0-.16.05-.33.15-.5.09-.16.29-.33.58-.48l16.23-7.64Z"/>
          <path d="M488.02,1187.29c-.77-.67-1.6-1.11-2.47-1.29-.23-.07-.49-.11-.77-.13s-.53-.06-.76-.1-.42-.13-.56-.24c-.15-.11-.22-.33-.22-.61s.04-.5.12-.69c.08-.2.3-.34.66-.44l14.95-4.31c.2-.07.4-.11.61-.16.21-.03.42-.04.62-.04.33,0,.49.28.49.84v33.08c0,1.12.26,2.13.76,3.02.51.89,1.17,1.66,1.99,2.28.82.61,1.75,1.09,2.79,1.42,1.05.33,2.13.48,3.24.48.78,0,1.6-.13,2.45-.38.85-.27,1.67-.6,2.45-1.01.79-.41,1.52-.88,2.21-1.42.69-.54,1.24-1.11,1.67-1.7v-26.22c-.1-.95-.53-1.76-1.3-2.42s-1.6-1.11-2.47-1.3c-.23-.06-.48-.1-.76-.13-.28-.01-.53-.04-.76-.09-.23-.06-.42-.14-.57-.26s-.22-.31-.22-.61c0-.26.04-.5.12-.68.09-.2.3-.35.67-.44l14.95-4.27c.2-.07.4-.11.62-.16.21-.03.42-.04.61-.04.33,0,.49.14.49.44v33.82c.16,1.45.57,2.48,1.23,3.09.65.62,1.72.94,3.19.94l2.84-.2c.13,0,.21.23.24.67.04.44.05.75.05.95,0,.07-.04.28-.12.64-.09.37-.28.62-.62.78l-14.9,6.14c-.07.03-.23.09-.5.17-.26.07-.4.11-.44.11-.23,0-.37-.13-.42-.41-.04-.28-.07-.55-.07-.81v-4.71c-.1-.13-.26-.2-.49-.2h-.2c-.06,0-.1.04-.1.1l-7.84,3.83c-.72.26-1.39.51-2.01.75-.62.26-1.23.48-1.84.71-.6.24-1.25.41-1.94.55-.69.13-1.44.18-2.25.18-1.37,0-2.89-.13-4.53-.41-1.65-.28-3.19-.72-4.61-1.32-1.43-.61-2.61-1.39-3.56-2.34-.94-.94-1.42-2.08-1.42-3.43v-29.61c-.1-.95-.53-1.76-1.3-2.42Z"/>
          <path d="M547.51,1187.71h-3.68c-.45,0-.82-.11-1.08-.35-.26-.23-.4-.47-.44-.72,0-.17.04-.35.1-.55.06-.18.15-.33.25-.38.65-.43,1.36-.92,2.13-1.5.77-.57,1.53-1.16,2.28-1.79s1.49-1.23,2.21-1.86c.72-.62,1.35-1.19,1.91-1.72.33-.35.77-.91,1.35-1.62.57-.72,1.23-1.43,1.96-2.14.74-.69,1.53-1.32,2.38-1.86.84-.54,1.72-.81,2.6-.81.2,0,.43.07.69.2s.39.3.39.48c0,.24-.06.58-.17,1.06-.11.47-.26,1.01-.42,1.59-.16.6-.34,1.21-.54,1.86-.19.67-.38,1.29-.54,1.91,0,.27.04.48.12.64.09.17.3.27.67.3h12.5c.52,0,.88.09,1.08.27s.34.41.44.71c.06.17.13.5.2,1.01.06.51.13,1.06.2,1.66.06.61.12,1.22.17,1.82.05.61.07,1.11.07,1.5,0,.2-.13.3-.39.3h-14.75c-.16,0-.26.03-.27.09-.02.07-.03.18-.03.35v24.36c0,1.05.13,1.96.39,2.74.26.79.6,1.45,1.01,1.97.41.52.87.91,1.4,1.18.52.26,1.05.38,1.57.38,1.5,0,2.72-.21,3.67-.65.95-.44,1.77-.92,2.45-1.45.69-.52,1.29-1.01,1.82-1.45.52-.44,1.11-.67,1.77-.67.45,0,.72.18.81.54.08.35.12.64.12.84,0,.43-.06.75-.17,1.01-.12.24-.21.43-.27.55-.04.07-.21.35-.54.84-.33.5-.77,1.08-1.33,1.77-.56.68-1.23,1.42-2.03,2.2-.8.79-1.69,1.52-2.67,2.18-.98.67-2.05,1.23-3.21,1.67-1.16.44-2.38.65-3.65.65-1.77,0-3.42-.33-4.95-.98-1.54-.65-2.86-1.53-3.97-2.62-1.11-1.09-1.99-2.34-2.62-3.74s-.96-2.86-.96-4.37v-27.4Z"/>
          <path d="M595.5,1179.47c.13-.07.27-.13.42-.2s.26-.1.32-.1c.55,0,.83.4.83,1.18v8.34c0,.1,0,.21.03.37.01.14.11.21.27.21s.29-.06.39-.17.2-.21.3-.31c.59-.79,1.25-1.66,1.99-2.62.73-.96,1.52-1.87,2.35-2.72.83-.85,1.69-1.56,2.57-2.14.88-.57,1.74-.85,2.6-.85.59,0,1.35.16,2.3.48.95.34,1.87.72,2.77,1.16.89.44,1.67.89,2.3,1.38.63.47.95.85.95,1.15s-.14.84-.44,1.64c-.29.79-.66,1.6-1.1,2.42-.45.81-.92,1.55-1.43,2.18-.5.62-.97.95-1.4.95h-.1c-.59-.2-1.18-.44-1.79-.71-.61-.28-1.22-.55-1.84-.84-.62-.27-1.25-.51-1.89-.68-.64-.18-1.28-.27-1.94-.27-.98,0-1.89.2-2.74.61s-1.57.94-2.18,1.56c-.6.64-1.08,1.36-1.45,2.14-.35.78-.54,1.53-.54,2.25v20.69c0,.95.21,1.74.62,2.37.4.64.93,1.16,1.57,1.57.64.41,1.34.72,2.11.94.77.21,1.51.38,2.23.51.72.13,1.38.24,1.96.33.59.07,1.04.18,1.33.31.33.13.49.6.49,1.38,0,.95-.16,1.45-.49,1.52h-28.28c-.33-.07-.49-.57-.49-1.52,0-.78.16-1.25.49-1.38.43-.2,1.03-.35,1.82-.47.78-.11,1.57-.34,2.35-.68.79-.34,1.47-.88,2.06-1.62s.88-1.83.88-3.26v-23.58c0-.78-.21-1.4-.64-1.84s-.96-.77-1.62-1.01c-.65-.23-1.35-.41-2.11-.55-.75-.16-1.47-.33-2.16-.52-.2-.06-.35-.16-.47-.27s-.17-.34-.17-.71c0-.16.05-.33.15-.48.09-.17.29-.33.58-.5l16.23-7.64Z"/>
          <path d="M619.33,1225.5c-.2-.07-.33-.28-.39-.67-.07-.37-.1-.65-.1-.85,0-.17.05-.43.15-.78.09-.37.21-.58.34-.64.43-.2,1.03-.35,1.82-.47.78-.11,1.57-.34,2.35-.69.78-.34,1.47-.88,2.06-1.62.59-.74.89-1.82.89-3.26v-23.53c0-.78-.21-1.4-.64-1.84s-.96-.77-1.62-1.01c-.66-.23-1.36-.41-2.11-.55-.75-.16-1.47-.33-2.16-.52-.2-.06-.35-.16-.47-.27s-.17-.34-.17-.71c0-.16.05-.33.15-.48.1-.17.29-.33.59-.5l16.22-7.64c.13-.07.27-.13.42-.2s.26-.1.32-.1c.55,0,.84.4.84,1.18v36.17c0,1.45.29,2.52.88,3.26s1.28,1.28,2.06,1.62c.78.35,1.57.58,2.35.69.79.11,1.39.27,1.82.47.13.06.25.27.35.64.09.35.14.61.14.78,0,.2-.03.48-.09.85-.07.38-.2.6-.4.67h-25.59ZM624.32,1161.44c0-2.1.62-3.76,1.86-5.01,1.24-1.25,2.91-1.86,5-1.86s3.76.61,5,1.86c1.25,1.25,1.86,2.91,1.86,5.01s-.62,3.74-1.86,4.96c-1.24,1.23-2.91,1.84-5,1.84s-3.76-.61-5-1.84c-1.24-1.22-1.86-2.88-1.86-4.96Z"/>
          <path d="M650.9,1224.52c0-.27,0-.45.02-.6.01-.13.11-.34.27-.64l24.17-32.88c.33-.47.61-.85.86-1.18.24-.33.37-.74.37-1.23.03-.1-.18-.17-.64-.21-.46-.06-1.03-.1-1.72-.13-.69-.03-1.4-.06-2.16-.07s-1.39-.03-1.91-.03h-8.09c-1.11,0-2.04.24-2.79.74-.75.5-1.4,1.11-1.94,1.84-.54.74-.99,1.53-1.35,2.4-.36.87-.69,1.67-.99,2.4-.29.74-.57,1.36-.86,1.84-.28.5-.61.74-1,.74-.1,0-.33-.01-.69-.03s-.54-.07-.54-.17l2.94-17.3c.06-.3.3-.47.73-.51.43-.06.77-.09,1.04-.09.23,0,.45.11.66.35.21.23.44.48.69.75.24.28.51.54.81.77.29.23.65.34,1.08.34.49,0,1.13.03,1.94.07.8.06,1.82.1,3.04.14,1.23.06,2.7.1,4.44.13,1.73.03,3.8.06,6.23.06.98,0,2.13-.01,3.45-.03,1.33-.01,2.74-.04,4.27-.07,1.52-.04,3.09-.07,4.73-.1,1.63-.04,3.23-.07,4.8-.1.2.06.33.21.4.44.06.23.1.45.1.68,0,.07-.09.34-.25.81-.16.48-.34.79-.54.96l-24.81,33.72c-.13.2-.25.38-.37.54-.11.17-.17.37-.17.6,0,.16,0,.27.03.31.01.06.11.07.27.07h16.91c.89,0,1.67-.18,2.38-.55.7-.38,1.35-.87,1.96-1.45.6-.6,1.16-1.22,1.64-1.87.49-.65.96-1.28,1.42-1.86.46-.6.89-1.08,1.3-1.45.41-.38.83-.57,1.25-.57.19,0,.48.06.86.16.38.09.56.24.56.44l-4.07,10.54c-.06.13-.14.33-.24.58-.1.27-.22.52-.37.77s-.33.45-.54.64-.45.27-.71.27h-37.8c-.72,0-1.08-.33-1.08-.98Z"/>
          <path d="M700.31,1225.5c-.2-.07-.33-.28-.39-.67-.07-.37-.1-.65-.1-.85,0-.17.05-.43.15-.78.09-.37.21-.58.34-.64.43-.2,1.03-.35,1.82-.47.78-.11,1.57-.34,2.35-.69.78-.34,1.47-.88,2.06-1.62.59-.74.89-1.82.89-3.26v-23.53c0-.78-.21-1.4-.64-1.84-.43-.44-.96-.77-1.62-1.01-.66-.23-1.36-.41-2.11-.55-.75-.16-1.47-.33-2.16-.52-.2-.06-.35-.16-.47-.27s-.17-.34-.17-.71c0-.16.05-.33.15-.48.1-.17.29-.33.59-.5l16.22-7.64c.13-.07.27-.13.42-.2s.26-.1.32-.1c.55,0,.84.4.84,1.18v36.17c0,1.45.29,2.52.88,3.26.59.74,1.28,1.28,2.06,1.62.78.35,1.57.58,2.35.69.79.11,1.39.27,1.82.47.13.06.25.27.35.64.09.35.14.61.14.78,0,.2-.03.48-.09.85-.07.38-.2.6-.4.67h-25.59ZM705.31,1161.44c0-2.1.62-3.76,1.86-5.01,1.24-1.25,2.91-1.86,5-1.86s3.76.61,5,1.86c1.25,1.25,1.86,2.91,1.86,5.01s-.62,3.74-1.86,4.96c-1.24,1.23-2.91,1.84-5,1.84s-3.76-.61-5-1.84c-1.24-1.22-1.86-2.88-1.86-4.96Z"/>
          <path d="M732.53,1202.62c0-3.08.67-6.03,2.03-8.83,1.35-2.81,3.18-5.29,5.46-7.44,2.29-2.16,4.96-3.87,7.99-5.15,3.04-1.28,6.25-1.91,9.61-1.91s6.88.61,10.05,1.82c3.17,1.21,5.96,2.86,8.36,4.98,2.4,2.1,4.3,4.59,5.71,7.44,1.41,2.86,2.11,5.96,2.11,9.29s-.65,6.57-1.94,9.49c-1.3,2.94-3.08,5.47-5.37,7.63-2.29,2.16-5.01,3.84-8.17,5.08-3.16,1.22-6.59,1.83-10.32,1.83s-7.1-.62-10.22-1.89c-3.12-1.25-5.81-2.96-8.09-5.15-2.27-2.17-4.04-4.72-5.32-7.67-1.28-2.94-1.91-6.11-1.91-9.5ZM745.08,1199.52c0,1.76.13,3.59.39,5.46.26,1.89.65,3.72,1.18,5.49.52,1.79,1.18,3.46,1.99,5.03.8,1.56,1.76,2.95,2.86,4.14,1.11,1.19,2.38,2.13,3.78,2.82,1.4.68,2.99,1.02,4.75,1.02,1.93,0,3.59-.5,4.98-1.49,1.39-.99,2.53-2.3,3.43-3.9.9-1.6,1.56-3.4,1.99-5.39.43-2,.64-3.98.64-5.98,0-1.6-.15-3.29-.44-5.08-.3-1.77-.74-3.55-1.33-5.29-.59-1.76-1.3-3.43-2.16-5.03-.85-1.59-1.84-3.01-2.96-4.24-1.13-1.22-2.39-2.2-3.78-2.91-1.39-.72-2.9-1.08-4.53-1.08-1.83,0-3.42.5-4.78,1.49-1.36.99-2.48,2.28-3.36,3.87-.88,1.59-1.55,3.35-1.99,5.3-.44,1.94-.66,3.86-.66,5.76Z"/>
          <path d="M802.87,1177.96c.13-.07.27-.14.42-.2.15-.07.26-.1.32-.1.55,0,.83.4.83,1.18v7.64c.1.33.23.5.4.5s.29-.01.39-.03.23-.07.39-.17c2.09-1.08,3.86-1.99,5.32-2.72,1.46-.74,2.72-1.36,3.78-1.86,1.06-.51,2.01-.91,2.84-1.18.83-.28,1.67-.5,2.52-.64.85-.16,1.78-.24,2.79-.27,1.01-.04,2.25-.06,3.73-.06,1.6,0,2.98.34,4.16,1.04,1.18.68,2.17,1.59,2.97,2.72.79,1.12,1.45,2.41,1.96,3.87.51,1.45.89,2.94,1.16,4.45.26,1.53.44,3.03.54,4.51.1,1.49.14,2.84.14,4.06,0,1.13-.02,2.2-.07,3.18-.05.99-.1,2.06-.15,3.22s-.1,2.47-.14,3.94c-.05,1.47-.08,3.26-.08,5.35,0,.98.18,1.8.54,2.45.36.65.83,1.19,1.4,1.62.57.43,1.21.74,1.89.95.68.21,1.35.38,2.01.52.65.13,1.25.23,1.79.31.54.09.96.18,1.25.33.13.06.24.27.34.64.1.35.15.61.15.78,0,.2-.04.48-.1.85-.06.38-.2.6-.39.67h-27.35c-.2-.07-.33-.28-.4-.67-.06-.37-.1-.65-.1-.85,0-.17.05-.43.15-.78.1-.37.21-.58.35-.64.42-.2.99-.35,1.69-.47s1.43-.37,2.16-.77c.74-.4,1.4-.99,2.01-1.79.6-.79,1.01-1.99,1.2-3.56.06-.48.12-.94.17-1.36s.09-.87.13-1.3c.03-.44.06-.92.07-1.45.01-.52.03-1.13.03-1.82,0-1.47-.02-3.03-.05-4.71-.04-1.66-.05-3.53-.05-5.59,0-1.6-.08-3.19-.22-4.75-.15-1.57-.51-2.98-1.08-4.23-.57-1.23-1.41-2.25-2.52-3.03-1.11-.78-2.64-1.18-4.61-1.18-.68,0-1.3.04-1.84.13-.54.07-1.19.27-1.96.55-.77.3-1.78.74-3.02,1.33-1.24.58-2.91,1.39-5,2.4-.26.17-.53.35-.81.57-.28.21-.43.48-.47.81v24.02c0,1.47.3,2.6.89,3.36s1.28,1.32,2.06,1.66c.79.35,1.57.58,2.35.69s1.39.27,1.82.47c.13.06.24.27.34.64.1.35.15.61.15.78,0,.2-.04.48-.1.85-.06.38-.19.6-.39.67h-25.59c-.2-.07-.33-.28-.4-.67-.06-.37-.09-.65-.09-.85,0-.17.04-.43.14-.78.1-.37.21-.58.35-.64.43-.2,1.03-.35,1.82-.47.78-.11,1.57-.34,2.35-.69.79-.34,1.47-.89,2.06-1.66.59-.77.88-1.89.88-3.36v-24.9c0-.79-.21-1.4-.64-1.84-.43-.44-.96-.78-1.62-1.01-.65-.23-1.35-.41-2.11-.55-.75-.16-1.47-.33-2.16-.52-.2-.06-.35-.16-.47-.27s-.17-.35-.17-.71c0-.16.05-.33.15-.5.09-.16.29-.33.58-.48l16.23-7.64Z"/>
          <path d="M850.86,1225.5c-.2-.07-.33-.28-.39-.67-.07-.37-.1-.65-.1-.85,0-.17.05-.43.15-.78.09-.37.21-.58.34-.64.43-.2,1.03-.35,1.82-.47.78-.11,1.57-.34,2.35-.69.78-.34,1.47-.88,2.06-1.62s.89-1.82.89-3.26v-23.53c0-.78-.21-1.4-.64-1.84-.43-.44-.96-.77-1.62-1.01-.66-.23-1.36-.41-2.11-.55-.75-.16-1.47-.33-2.16-.52-.2-.06-.35-.16-.47-.27s-.17-.34-.17-.71c0-.16.05-.33.15-.48.1-.17.29-.33.59-.5l16.22-7.64c.13-.07.27-.13.42-.2s.26-.1.32-.1c.55,0,.84.4.84,1.18v36.17c0,1.45.29,2.52.88,3.26s1.28,1.28,2.06,1.62c.78.35,1.57.58,2.35.69.79.11,1.39.27,1.82.47.13.06.25.27.35.64.09.35.14.61.14.78,0,.2-.03.48-.09.85-.07.38-.2.6-.4.67h-25.59ZM855.86,1161.44c0-2.1.62-3.76,1.86-5.01,1.24-1.25,2.91-1.86,5-1.86s3.76.61,5,1.86c1.25,1.25,1.86,2.91,1.86,5.01s-.62,3.74-1.86,4.96c-1.24,1.23-2.91,1.84-5,1.84s-3.76-.61-5-1.84c-1.24-1.22-1.86-2.88-1.86-4.96Z"/>
          <path d="M889.05,1225.21c-.29,0-.55.09-.79.26-.23.16-.45.34-.66.55s-.42.4-.61.57c-.2.17-.43.24-.69.24h-1.77c-.06,0-.16-.47-.29-1.42-.13-.95-.28-2.08-.42-3.4-.15-1.33-.27-2.69-.37-4.13-.1-1.42-.15-2.6-.15-3.55,0-.52.19-.87.57-1.01s.77-.23,1.2-.23c.23,0,.48.09.76.26.28.16.54.37.79.61.24.24.47.5.66.75.2.27.35.5.44.69.56,1.21,1.11,2.3,1.67,3.28.56.99,1.2,1.82,1.91,2.51.72.68,1.57,1.22,2.55,1.59.98.38,2.16.57,3.53.57,1.04,0,1.89-.18,2.55-.54.65-.35,1.16-.84,1.52-1.42.36-.6.6-1.26.72-2.01.11-.75.17-1.53.17-2.35,0-1.63-.49-3.02-1.47-4.14-.98-1.13-2.2-2.18-3.65-3.16-1.45-.98-3.03-1.99-4.75-2.99-1.72-1.01-3.3-2.18-4.76-3.53-1.45-1.33-2.67-2.94-3.65-4.78-.98-1.84-1.47-4.13-1.47-6.83,0-1.57.5-3.11,1.47-4.59.98-1.47,2.25-2.79,3.82-3.94s3.33-2.06,5.27-2.74c1.95-.69,3.89-1.04,5.81-1.04,1.01,0,2.03.09,3.06.27s1.98.38,2.84.61,1.6.45,2.21.69c.6.23.99.38,1.16.48.23.17.41.43.56.77s.25.89.3,1.64c.04.75.08,1.74.09,3.01.02,1.26.03,2.91.03,4.93,0,.55-.21.95-.62,1.19-.4.26-.81.37-1.2.37-.36,0-.71-.06-1.06-.2-.34-.13-.56-.34-.66-.64-.39-1.01-.84-2.03-1.33-3.06-.49-1.02-1.05-1.96-1.69-2.79-.64-.82-1.38-1.5-2.23-2-.85-.51-1.83-.77-2.94-.77-.65,0-1.3.09-1.96.24-.65.17-1.24.48-1.77.96-.52.47-.94,1.12-1.25,1.93-.31.82-.47,1.87-.47,3.15,0,1.11.51,2.13,1.55,3.08,1.03.95,2.31,1.91,3.84,2.88,1.54.96,3.21,2,5.03,3.11,1.82,1.11,3.49,2.38,5.03,3.83,1.53,1.43,2.81,3.09,3.85,4.98,1.03,1.87,1.54,4.08,1.54,6.64,0,1.9-.49,3.6-1.47,5.12-.98,1.53-2.24,2.81-3.77,3.86-1.54,1.05-3.25,1.86-5.13,2.42-1.88.57-3.72.85-5.52.85-.91,0-1.83-.07-2.74-.24s-1.75-.35-2.5-.57c-.75-.21-1.37-.4-1.86-.55-.5-.17-.77-.26-.84-.26Z"/>
          <path d="M923.96,1187.71h-3.68c-.45,0-.82-.11-1.08-.35-.26-.23-.4-.47-.44-.72,0-.17.04-.35.1-.55.06-.18.15-.33.25-.38.65-.43,1.36-.92,2.13-1.5.77-.57,1.53-1.16,2.28-1.79s1.49-1.23,2.21-1.86c.72-.62,1.35-1.19,1.91-1.72.33-.35.77-.91,1.35-1.62.57-.72,1.23-1.43,1.96-2.14.74-.69,1.53-1.32,2.38-1.86.84-.54,1.72-.81,2.6-.81.2,0,.43.07.69.2s.39.3.39.48c0,.24-.06.58-.17,1.06-.11.47-.26,1.01-.42,1.59-.16.6-.34,1.21-.54,1.86-.19.67-.38,1.29-.54,1.91,0,.27.04.48.12.64.09.17.3.27.67.3h12.5c.52,0,.88.09,1.08.27s.34.41.44.71c.06.17.13.5.2,1.01s.13,1.06.2,1.66c.06.61.12,1.22.17,1.82.05.61.07,1.11.07,1.5,0,.2-.13.3-.39.3h-14.75c-.16,0-.26.03-.27.09-.02.07-.03.18-.03.35v24.36c0,1.05.13,1.96.39,2.74.26.79.6,1.45,1.01,1.97.41.52.87.91,1.4,1.18.52.26,1.05.38,1.57.38,1.5,0,2.72-.21,3.67-.65.95-.44,1.77-.92,2.45-1.45.69-.52,1.29-1.01,1.82-1.45.52-.44,1.11-.67,1.77-.67.45,0,.72.18.81.54.08.35.12.64.12.84,0,.43-.06.75-.17,1.01-.12.24-.21.43-.27.55-.04.07-.21.35-.54.84-.33.5-.77,1.08-1.33,1.77-.56.68-1.23,1.42-2.03,2.2-.8.79-1.69,1.52-2.67,2.18-.98.67-2.05,1.23-3.21,1.67-1.16.44-2.38.65-3.65.65-1.77,0-3.42-.33-4.95-.98-1.54-.65-2.86-1.53-3.97-2.62-1.11-1.09-1.99-2.34-2.62-3.74-.64-1.4-.96-2.86-.96-4.37v-27.4Z"/>
          <path d="M975.87,1224.52c-1.08.75-2.35,1.33-3.82,1.76-1.47.43-2.94.64-4.41.64-3.99,0-7.02-.89-9.1-2.69-2.08-1.8-3.11-4.23-3.11-7.3,0-1.76.4-3.29,1.2-4.57.8-1.26,1.99-2.4,3.56-3.37,1.57-.98,3.5-1.87,5.81-2.67,2.3-.81,4.98-1.6,8.01-2.38,1.64-.43,2.95-.88,3.95-1.38,1-.48,1.92-.96,2.77-1.42.55-.3.87-.55.96-.78.08-.24.12-.45.12-.64v-8.54c0-1.08-.16-2.08-.47-3.02-.31-.92-.77-1.73-1.4-2.42-.62-.68-1.37-1.22-2.25-1.62-.88-.38-1.88-.58-2.99-.58-.94,0-1.83.16-2.64.48-.82.33-1.52.81-2.11,1.43-.59.61-1.06,1.35-1.4,2.2-.35.85-.52,1.82-.52,2.89,0,.1,0,.24.02.44.02.2.04.4.08.61.03.21.06.41.1.57.03.17.05.27.05.3-.04.07-.3.2-.82.4-.5.18-1.13.41-1.86.65-.74.26-1.55.5-2.43.74-.88.24-1.72.48-2.52.71-.8.23-1.5.44-2.11.61-.6.18-1.02.3-1.25.33-.36,0-.58-.18-.67-.57-.08-.37-.12-.74-.12-1.11,0-1.89.57-3.74,1.72-5.53,1.14-1.8,2.67-3.39,4.59-4.78,1.91-1.39,4.11-2.51,6.59-3.36,2.48-.85,5.05-1.28,7.69-1.28,2.35,0,4.46.3,6.32.91s3.45,1.43,4.76,2.5c1.3,1.06,2.3,2.3,2.98,3.69.69,1.38,1.04,2.86,1.04,4.42v23.38c0,.85.32,1.62.95,2.28.64.67,1.47,1.01,2.48,1.01.59,0,1.11-.1,1.59-.31s.9-.47,1.28-.74c.38-.28.69-.52.96-.74s.49-.33.69-.33c.26,0,.4.11.44.33s.05.4.05.57c0,.55-.07,1.12-.22,1.69s-.4.99-.76,1.25c-1.6,1.21-3.03,2.3-4.27,3.26-1.24.96-2.37,1.79-3.38,2.48-1.01.68-1.93,1.21-2.74,1.56-.82.35-1.59.54-2.3.54-.65,0-1.23-.18-1.74-.54-.5-.35-.94-.79-1.32-1.32s-.69-1.09-.96-1.69c-.26-.61-.48-1.18-.66-1.7-.18-.52-.32-.95-.42-1.28s-.18-.47-.25-.44l-5.74,4.47ZM966.85,1215.75c0,.88.17,1.6.52,2.16.34.55.79.98,1.35,1.28.55.3,1.18.5,1.89.61s1.43.17,2.18.17c.68,0,1.53-.17,2.55-.51s2-.79,2.96-1.38c.96-.57,1.79-1.22,2.48-1.96.68-.74,1.03-1.47,1.03-2.23v-8.1c0-.35-.13-.54-.39-.54-.07,0-.13.01-.2.06l-11.37,5.29c-.46.33-.88.62-1.25.91s-.69.61-.95.98c-.26.38-.46.82-.59,1.32-.13.51-.2,1.16-.2,1.94Z"/>
        </g>
        <g>
          <path d="M142.54,642.59h-41.73l-64.45-179.07h49.66l35.65,117.8,35.92-117.8h49.65l-64.71,179.07Z"/>
          <path d="M347.51,639.68l-18.49-15.84c-12.94,12.41-27.73,18.75-44.9,18.75-35.66.79-67.09-33.01-66.29-71.84-.79-38.83,30.64-72.63,66.29-71.84,17.7,0,32.49,6.34,44.9,18.75l18.49-15.84h10.03v137.86h-10.03ZM289.93,532.97c-12.15,0-22.98,17.17-22.98,37.78,0,10.29,2.38,19.02,6.87,26.67,4.49,7.39,10.03,11.09,16.11,11.09,12.41,0,23.24-17.16,23.24-37.76s-10.83-37.78-23.24-37.78Z"/>
          <path d="M390.85,434.21h47.01v205.47h-47.01v-205.47Z"/>
          <path d="M555.13,609.04c12.68,0,23.51-3.96,32.75-11.61l17.7,20.33c-13.73,14.79-36.45,24.83-59.95,24.83-49.12,0-79.5-31.69-79.5-71.31s31.69-72.36,76.06-72.36c39.09,0,69.19,29.58,69.19,66.29,0,4.48-.26,8.45-1.05,11.88h-95.61c0,19.27,15.58,31.95,40.41,31.95ZM564.37,549.62c0-12.15-8.45-21.13-22.45-21.13-9.77,0-20.33,7.66-25.35,21.13h47.8Z"/>
          <path d="M686.15,639.68h-47.02v-137.86h10.04l18.75,16.11c9.51-10.04,29.05-19.02,44.9-19.02,5.55,0,10.04.79,12.94,2.64v75.27h-9.24l-30.37-30.37v93.24Z"/>
          <path d="M748.49,501.82h47.01v137.86h-47.01v-137.86ZM794.71,454.27c0,12.68-10.29,22.45-22.71,22.45s-22.98-9.77-22.98-22.45,10.56-22.97,22.98-22.97,22.71,10.29,22.71,22.97Z"/>
          <path d="M953.45,639.68l-18.49-15.84c-12.94,12.41-27.73,18.75-44.9,18.75-35.66.79-67.09-33.01-66.29-71.84-.79-38.83,30.64-72.63,66.29-71.84,17.69,0,32.48,6.34,44.9,18.75l18.49-15.84h10.03v137.86h-10.03ZM895.87,532.97c-12.15,0-22.97,17.17-22.97,37.78,0,10.29,2.38,19.02,6.86,26.67,4.49,7.39,10.04,11.09,16.11,11.09,12.41,0,23.24-17.16,23.24-37.76s-10.83-37.78-23.24-37.78Z"/>
          <path d="M54.33,899.14h58.63c44.11,0,79.23,39.62,79.23,88.22.52,47.8-35.66,88.47-79.23,87.95h-58.63v-176.16ZM142.28,987.36c0-30.64-15.85-55.73-34.86-55.73h-6.08v110.93h6.08c18.75,0,34.86-24.57,34.86-55.2Z"/>
          <path d="M306.84,1044.66c12.68,0,23.5-3.96,32.75-11.61l17.7,20.33c-13.73,14.79-36.44,24.83-59.95,24.83-49.12,0-79.5-31.69-79.5-71.31s31.69-72.36,76.06-72.36c39.09,0,69.2,29.58,69.2,66.29,0,4.48-.27,8.45-1.06,11.88h-95.6c0,19.27,15.58,31.95,40.41,31.95ZM316.08,985.24c0-12.15-8.45-21.13-22.45-21.13-9.78,0-20.34,7.66-25.35,21.13h47.8Z"/>
          <path d="M602.93,947.74c0,11.09-3.43,21.13-10.29,29.85,11.88,10.29,19.02,25.09,19.02,41.99,0,30.1-27.47,55.73-58.64,55.73h-82.13v-176.16h80.55c27.21,0,51.5,22.72,51.5,48.6ZM517.89,963.85h21.92c8.45,0,16.11-7.66,16.11-16.11s-7.66-16.11-16.11-16.11h-21.92v32.22ZM564.64,1019.58c0-12.95-10.56-23.5-23.5-23.5h-23.24v47.01h23.24c12.94,0,23.5-10.56,23.5-23.51Z"/>
          <path d="M778.85,1006.37c.79,38.29-33.54,72.89-72.37,71.84-39.09,1.05-72.62-33.55-72.1-71.84,0-39.88,32.75-71.84,72.1-71.84s72.37,31.96,72.37,71.84ZM706.48,968.6c-12.15,0-22.98,17.17-22.98,37.78,0,10.29,2.38,19.02,6.87,26.67,4.49,7.39,10.03,11.09,16.11,11.09,12.41,0,23.24-17.16,23.24-37.76s-10.83-37.78-23.24-37.78Z"/>
          <path d="M807.4,937.44h47.01v137.86h-47.01v-137.86ZM853.61,889.9c0,12.68-10.29,22.45-22.71,22.45s-22.98-9.77-22.98-22.45,10.56-22.97,22.98-22.97,22.71,10.29,22.71,22.97Z"/>
          <path d="M983.3,981.27c-7.66-4.75-28.25-13.2-39.61-13.2-7.4,0-13.21,3.43-13.21,8.45,0,3.43,3.44,6.08,10.3,8.45,7.13,2.38,15.58,5.02,25.35,8.45,19.81,6.34,33.54,16.9,33.54,39.1,0,26.67-29.32,45.69-58.64,45.69-21.39,0-40.41-5.81-57.57-17.17l5.54-30.1c17.17,8.18,36.71,13.2,47.28,13.2,9.24,0,16.64-2.91,16.64-8.98,0-3.43-3.44-6.07-10.56-8.45-7.13-2.38-15.58-5.02-25.35-8.45-19.81-7.13-33.54-18.75-33.54-40.94,0-26.67,25.35-43.58,56.25-43.58,20.6,0,39.35,6.86,55.99,20.86l-12.41,26.67Z"/>
        </g>
        <g>
          <path d="M437.24,755.98c1.41.42,2.03-2.1,2.34-3.1,2.51-8.39,5.64-18.81,7.37-27.26,1.27-6.19.12-3.03-2.62-2.9-1.24.06-6.37-.09-6.59-.34-.66-.73,1.03-16.52.99-19.76-.06-4.96-1.39-11.72-1.59-16.84-.21-5.42,3.1-16.38,6.52-20.72,6.67-8.47,22.72-15.16,30.19-4.48,4.23,6.05,8.7,33.35,10.25,42.17,3.88,22.17,6.88,45.22,8.85,67.44.15,1.67.17,10.86.67,11.39.19.2,4.43,1.35,5.29,1.51,126.8,24.01,254.85,26.81,382.55,8.49,17.52-2.51,36.11-4.15,51.69-13.63,12.98-7.9,28.23-28.65,45.38-19.27,5.8,3.17,13.44,15.11,15.51,21.42,3.62,11.05,3.93,26.82-1.01,37.54-3.94,8.55-11.75,13.71-20.61,16.4-16.15,4.89-41.44,2.22-58.27,0-3.28-.43-8.56-2.52-11.87-2.99-21.83-3.1-44.86-4-67.05-3.38-1.84.05-3.4,1.45-6.03.93-1.43-.28.54-2.9-1.7-2.53.57,3.99-2.63,1.83-5.51,2.13-8.5.89-17.91.96-26.48,1.05-61.77.65-123.23,1.72-185.01,2.7-1.6.03-7.89,2.15-8.96.61-.41-.59.55-2.86-.56-2.3-6.36,3.21-6.23,1.65-12.07,1.82-33.36.99-67.4,2.51-100.93,2.14-6-.07-19.32-2.26-23.95-1.21-2.67.6-.88,2.74-1.1,3.85-1.17,5.98-2,12.14-3.05,18.12-5.31,30.32-19.06,57.14-40.02,79.65-2.79,3-7.05,6-9.46,8.47-1.17,1.2-3.33,5.41-6.16,4.5-1.95-.62-7.03-13.43-9.49-15.47-.1-4.59,2.6,2.83,5.98.31-1.85-2.72-3.68-3.71-7.04-3.36l1.51-5.93-3.59-.2c1.66-4.01-1.33-6.03-1.84-8.05-4.33-17.2,2.5-44.75,12.21-59.49,1.01-1.53,7.06-8.08,6.66-8.43-.31-.28-2.95.05-4.18-.23-27.44-6.19-58.68-33.04-77.8-53.11-7.73-8.11-22.82-30.47-23.69-41.45-2.34-29.48,21.89-46.38,49.56-42.52,1.27.18,2.29,1.22,3.54,1.41,4.19.63,3.47-2.14,5.59-3.96,3.22-2.77,13.54-6.64,17.77-6.9,32.34-1.98,49.57,29.04,57.81,55.74ZM377.07,734.94c-.28,4.24-1.89,5.73-.27,9.97,1.28,3.36,4.11,8.51,5.74,11.95,1.31,2.76,6.18,13.63,8.93,13.66,1.03.01,2.12-1.18,3.05-.55l5.58,8.16-6.28-6.32c-.88-.23-.89,1.23-.69,1.76.3.79,4.67,5.32,5.73,6.26,2.14,1.89,7.72,4.64,9.04,6.12.64.71.63,3.08,2.4,4.17.85.52,1.78-.46,2.78-.26,1.69.34,3.39,1.73,5.59,1.22.49,5.31-4.13-.02-6.08,1.49,3.11,4.06,7.91,5.92,11.99,8.59,2.85,1.86,5.19,5.27,8.93,5.08l-2.64,4.67,3.58-.99,2.34,2.48-3.84-8.55c.5-1.34.47-5.23-.33-5.97-.42-.39-2.41.05-3.53-.8-1.08-.82-.75-2.66-1.07-3.03-.57-.65-4.11.18-4.64-.38-.21-.22-.51-3.57-1.58-4.88-1.54-1.88-5.91-4.88-7.56-6.89-4.2-5.11-9.39-15.09-13.9-19.43-1-.96-2.68-1.16-2.87-1.41-.5-.64.44-2.71-.06-3.34-1.09-1.38-6.63-2.66-6.88-2.95-.64-.74,1.66-4.26-2.24-3.71,2.88-4.5.51-2.68-1.66-4.75-1.36-1.29-1.28-3.06-1.74-3.57-.68-.76-4.18-1.33-4.47-1.68-.53-.63,1.42-6.64-3.36-6.1ZM377.21,827.41l-2.39-.12-.06,1.19,2.39.12.06-1.19ZM394.18,919.52l-.12,2.39,1.19.06.12-2.39-1.19-.06ZM402.26,925.93c-.09-1.16.22-2.42.18-3.6-1.1,1-6.1-.74-6.07,1.5,0,.3,3.45,4.06,3.98,4.4,1.14.73-.3-2.39,1.92-2.3.09,1.14.65,2.3.63,3.01-.07,1.91-1.89,5.13-1.12,7.73l5.15,1.48,1.8,2.52-1.58-3.68c-1.18.15-4.08-2.7-4.07-3.21.03-1.26,3.45-1.49,3.69-1.67.12-.09-2.29-3.94.71-2.31,1.56.85,1.36,3.07,1.78,3.52.2.22,5.56,1.88,5.77,1.66,1.21-1.27-.95-5.22-.93-6.61.02-1.17,4,.33,2.61-2.91l-5.93-1.5c-.48.42,2.03,4.36-.85,4.76-1.34.19-5.2-2.7-7.65-2.79ZM438.47,826.89c-.26,3.32-3.79,4.61-5.72,6.95-.56,1.69-6.96,8.22-5.91,9.27.27.27,6.57.51,7.65.25,1.37-.33,7.15-5.38,8.84-6.68,1.31-1,2.84-.87,3.06-1.03.46-.33.36-3.38-.96-4.28-.81-.55-3.6,1.54-3.52-3.1-4.08,2.55-.82-.85-3.46-1.38ZM425.56,892.28c-.44,2.5-.26,2.7,2.27,2.51l-2.27-2.51ZM437.93,813.65c-.44,2.5-.26,2.7,2.27,2.51l-2.27-2.51ZM441.84,783.83l-.12,2.39,1.19.06.12-2.39-1.19-.06ZM442.98,761.08l-.12,2.39,1.19.06.12-2.39-1.19-.06ZM445.03,744.37l-.12,2.39,1.19.06.12-2.39-1.19-.06ZM447.53,766.11l-2.39-.12-.06,1.19,2.39.12.06-1.19ZM449.63,748.2c-1.07-.97-5.46,1.22-1.98,3.5.99.65.38-1.15.69-1.76.23-.47,1.83-1.25,1.29-1.74ZM447.28,794.91l-2.51,2.27c2.5.44,2.7.26,2.51-2.27ZM450.63,799.89l-4.85.96,1.06,3.61,5.91.31,1.53-5.89c-2.92.45-1.71,4.37-4.37,3.38-1.6-.3,1.22-1.86.72-2.36ZM447.52,790.12c-.44,2.5-.26,2.7,2.27,2.51l-2.27-2.51ZM452.21,744.73l-2.39-.12-.06,1.19,2.39.12.06-1.19ZM451.41,784.32l-2.39-.12-.06,1.19,2.39.12.06-1.19ZM453.41,744.79c-.86,2.29,1.86,3.08,2.07,4.46.1.66-1.73,10.63-1.85,12.96-.21,4.07,2.64,14.68,1.45,17.95-.5,1.37-2.82,1.88-2.44,3.61.59,2.74,3.22.66,4.04.87,2.54.64,1.39,4.58,1.78,6.45.26,1.23,1.32,2.28,1.54,3.23.39,1.67-3.04,5.06.86,4.88,3.47-1.83.88-4.34,1.42-5.97,1.42-4.3,4.31-12.63,3.94-17.16-.75-9.39-1.07-28.34,2.02-36.97.48-1.33,2.78-1.89,2.43-3.62-.81-4.01-4.4,1.05-5.63,1.36-1.3.33-3.76-.28-4.04-.05-.34.27.1,4.77-.48,6.42-.44,1.26-2.85,2.14-2.47,4.23l-4.66-2.64ZM468.62,728.75l-.12,2.39,1.19.06.12-2.39-1.19-.06ZM471.24,772.11c-.47-.65-3.48,2.21-2.57,3.47.47.65,3.48-2.21,2.57-3.47ZM472.39,749.35l-.12,2.39,1.19.06.12-2.39-1.19-.06ZM474.23,784.27l-.12,2.39,1.19.06.12-2.39-1.19-.06ZM478.9,786.9l-2.39-.12-.06,1.19,2.39.12.06-1.19ZM489.02,776.61l-.12,2.39,1.19.06.12-2.39-1.19-.06ZM720.91,820.72l-2.39-.12-.06,1.19,2.39.12.06-1.19ZM732.89,821.32l-.12,2.39,1.19.06.12-2.39-1.19-.06ZM733.84,826.17c-.09.08-.2,2.3-.12,2.39,1.46,1.79,3.85-5.77.12-2.39ZM795.76,812.48l-.12,2.39,1.19.06.12-2.39-1.19-.06ZM804.02,815.3l-.12,2.39,1.19.06.12-2.39-1.19-.06ZM893.85,795.81l-.12,2.39,1.19.06.12-2.39-1.19-.06ZM896.06,799.53c-1.72,1.32,5.38,6.6,5.68,6.29.96-.97-3.33-4.92-.83-7.25l-4.85.96ZM959.71,799.13c-.18-.1-1.58-3.14-1.02-3.65.77-.7,4.76.82,4.69,2.04-.04.7-2.56,2.21-3.68,1.62.04.03-.17.7.19.96,3.42,2.41,7.6,3.99,10.19,7.37-.51.96-1.94.64-3.14,1.58-1.7,1.34-4.55,6.74-3.36,8.3.57.75,2.54-2.79,4.3-2.19.47.16,2.06,2.2,1.68,2.49-.62.47-3.91-1.37-3.65,1.02,8.34,1.19,14.42,1.74,6.7,9.94l7.18.36c.5-2.35-3.03-.85-3.53-1.38-.43-.45,3.62-8.05,3.92-10.23.22-1.61-1.81-8.56-.49-10.01.2-.22,5.39,3.59,5.98.3-8.61.97-5.37-7.03-5.3-12.93.02-1.43-.65-2.62-.64-3.58,0-.83,1.04-2.04,1.03-3.54,0-1.79-3.04-4.87-3.46-4.39-.37.42-.36,3.13-2.58,4.11-1.73.76-4.59,1.46-6.98,2.39-3.03,1.18-8.94,2.44-11.4,3.82-3,1.68.07,4.07,1.73,5.34.5.38,1.33.05,1.62.26ZM980.12,822.98c-.13.14-.48,2.63-1.38,3.53,4.05,1.58,2.62-4.82,1.38-3.53Z" fill="#a6bd3c"/>
          <path d="M387.18,748.66l-.3,5.99-1.19-.06c.49-2.95-2.25-5.01,1.5-5.93Z" fill="#a6bd3c"/>
          <rect x="392.98" y="764.02" width="2.4" height="1.19" transform="translate(-389.32 1119.8) rotate(-87.11)" fill="#a6bd3c"/>
          <path d="M458.97,753.48c1.24-1.3,2.67,5.1-1.38,3.53.9-.9,1.25-3.39,1.38-3.53Z" fill="#a6bd3c"/>
        </g>
        <g>
          <path d="M0,872.75c3.69-17.22,8.47-34.14,13.7-50.94,10.52-33.77,23.65-63.67,49.59-88.46,21.4-20.45,38.4-28.87,67.59-34.2,1.13-.21,5.91-.57,6.13-.35.56.55-.88,3.77,1.32,3.28-.31-2.95-1-3.76,2.64-3.57,32.92,1.78,60.94,9.52,91.59,22.27,6.83,2.84,16.83,7.11,21.45,12.85,3.32,4.13,4.7,10.73,3.55,15.86-.35,1.55-3.12,5.22-2.87,5.4.14.1,2.12-.13,3.42.33,9.02,3.23,17.85,12.02,21.93,20.64,8.54,18.04,1.92,36.47-11.18,50.04,19.56.02,38.75,8.93,51.86,23.38.97,1.07,6.01,8.09,6.06,8.66.06.85-4.33,3.16-5.35,3.7-3.93,2.06-18.12,9.53-21.36,9.7-1.86.1-3.2-.94-4.55-.94-14.9-.06-30.06.21-44.87.33-79.62.65-159.19,2.26-238.93,1.35-3.9-.04-7.84.62-11.74.66ZM250.63,840.42l6.6-2.05c-.8-.47-2.5-2.61-2.95-2.6-.47.01-2.12,2.97-2.67,2.36l-.2-3.35c-1.95-.51-.48,2.95-1.55,2.33-1.02-.6-1.86-1.95-2.97-2.62-3.24-1.94-11.06-1.04-15.19-.85-4.39.2-2.46.7-4.55,1.3-1.04.3-1.73-.75-2.17-.85-1.3-.3.43,3.14-.91,3.37l-2.43-3.23c-1.61,2.18-4.32,2.38-4.69,5.38-.13,1.08,1.09,2.48,1.79,2.64,1.66.37,2.5-2.25,3.23-2.27.66-.02,1.46,1.65,2.3,1.66.64,0,2.5-1.15,4.49-1.16,3.82-.03,5.85,2.66,9.42-1.59-.57,3.74,3.11,1.21,5.78,3.04l-.17-3.38c2.02,2.02,3.87-1.82,4.38-1.36,2.34,2.12-3.46,2.51-2.04,3.48.5.35,3.46.71,3.27-1.77-.02-.3-.12-.56-.04-.66,1.05-1.45,1.15,2.04,1.26,2.16ZM222.16,774.72l2.23-.13-.06-1.11-2.23.13.06,1.11ZM216.1,786.29c1.05-1.14-1.94-5.4-3.11-5.34-.53.03-1.22,1.88-2.09,1.98-.37.04-7.01-.24-7.27-.5s-.25-1.44-.74-2.1c-2.02-2.67-6.92-.01-9.19.32-1.66.24-3.67-1.48-6.42-.43-1.54.59-2.85,3.51-6.16,2.46-.07,1.7,2.67,1.55,3.95,2.02,1.41.51.57,2.17.84,3.32l-4-.75c-1.53.74-1.46,3.2-2.5,3.98-2.24,1.68-4.36-1.24-3.12,5.17,1.6-.26,2.65-3.09,3.72-3.58,2.26-1.04,1.47,1.53,1.91,1.95.22.21,5.46,1.14,6.07.94,2.03-.68,1.26-4.14,1.55-4.48.15-.18,3.28-.3,4.33-1.45,1.14,3.59-5.11,2.87-2.48,5.75,6.84-3,13.51-7.31,20.82-9.03,1.12-.26,3.68,0,3.9-.24ZM198.89,857.98l2.23-.13-.06-1.11-2.23.13.06,1.11ZM188.38,830.46c.33.35,5.5-.04,6.65-.85,2.34-1.64-.56-3.35-.31-5.05l-4.88,1.37-3.71-4.24-1.55,2.33c-.28-4.68-3.21-1.94-3.38-2.14-.37-.45,0-1.7-.28-2.09-.41-.55-3.77,1.84-5.94,1.32-1.69-.4-2.78-3.75-5.33-2.96-.75,3.37,1.9,1.71,2.36,2.11,2.24,1.95-1.46,2.17-1.88,2.56-.67.62.81,2.89-2.33,2.17l-.82-4.44c-3.27,2.08-1.37,5.13-2.9,8.04-1.19,2.27-5.35,3.63-3.01,6.93.75,1.06,4.44,4.37,5.22,2.47-5.8-3.42,2.2-4.69,5.52-2.62,1.56.97.94,3.35,1.38,3.81.51.54,6.19,1.38,6.68.84l-.17-3.89-1.61-.53c-1.56.24-.24-1.39.31-1.69,1.79-.96,5.86-.31,7.86.13l.8-5.66c1.96-.55.76,1.53,1.29,2.09ZM193.12,855l2.18-.73c-1.51-2.26-4.99-.26-7.28-.2-1.85.05-5.89-.7-7.71-.43-1.11.16-3.56,1.47-4.56,2.31l-1.23-2.18c-2.66,2.3-2.11,6.41,1.47,6.68,2.09.16,4.51-.51,6.74-.41,2.17.09,3.78,1.39,6.82.75,2.05-.43,2.64-2.64,4.86-2.58l-1.28-3.22ZM187.66,838.43l-.13-2.24-1.11.06.13,2.24,1.11-.06ZM175.54,803.21l-.13-2.24-1.11.06.13,2.24,1.11-.06ZM167,712.79l2.23-.13-.06-1.11-2.23.13.06,1.11ZM171.61,793.33l-.13-2.24-1.11.06.13,2.24,1.11-.06ZM171.8,796.69l-.13-2.24-1.11.06.13,2.24,1.11-.06ZM170.89,839.39c.07-.08-.05-2.16-.13-2.24-1.54-1.51-3,5.74.13,2.24ZM159.39,752.71c.36-.39,1.35-.43,1.95-.86,1.25-.91,1.43-3.48.93-3.99-.14-.14-2.17,1.14-3.79,1.39-3.05.48-3.65.33-6.74,1.44-.29.1-1.47-4.69-2.88-2.06-.27.5.74,2.29-.43,2.27-3-3.41-6.9-3.02-10.75-1.62.31-4.83-.68-2.75-3.89-3.37-5.41-1.04-6.08-2.89-12.01.32-1.34.73-7.23,5.61-8.02,6.64-.93,1.2-1.03,3.45-1.95,4.63-1.35,1.73-3.46,1.31-4.26,4.71-.64,2.72-1.02,3.17-2.56,5.68-.12.2-1.68-1.77-3.72,1.44-1.98,3.12-.82,5.9-2.3,9.09,2.8.86,3.8-2.03,5.06-2.45.32-.11,4.71-.19,6.56-.44,6.38-.88,15.02-2.55,20.86-4.75.78-.29,4.9-2.16,5.09-2.36,1.48-1.54-5.17-7.24,1.93-4.64l2.16-2.33,1.31,3.29c-.23-1.46,1.23-4.1,2.57-4.27,3.52-.46.4-.52,2.59-2.27,1.37-1.1,4.15-.39,4.48-.79.29-.36-.64-2.74.92-4.01.8-.65,1.67.51,2.66.28.74-.17,1.46-1.42,1.79-1.04.42.48-.57,3.17.75,3.33,1.33-.69,1.18-2.68,1.7-3.26ZM161.06,765.88l-.13-2.24-1.11.06.13,2.24,1.11-.06ZM156.31,799.82l4.5.86c.09-1.41-2.61-1.42-4.12-1.93-2.43-.83-1.45,2.11-1.41,3.37,2.03.32.6-1.61,1.02-2.3ZM151.77,779.88l2.23-.13-.06-1.11-2.23.13.06,1.11ZM147.06,717.3l2.23-.13-.06-1.11-2.23.13.06,1.11ZM152.11,766.4l-.13-2.24-1.11.06.13,2.24,1.11-.06ZM151.74,798.96l2.23-.13-.06-1.11-2.23.13.06,1.11ZM150.81,802.38c1.91-2.59-4.21-6.7-1.11.06.36-.1,1.01.08,1.11-.06ZM141.13,770.39l2.23-.13-.06-1.11-2.23.13.06,1.11ZM110.29,800.22c-.19.5-1.54.04-2.03,4.03-.38,3.04-1.45,5.31-1.65,7.04-.1.85.83,1.6.62,2.63-.19.94-1.47,2.2-1.41,2.86.04.51,1.56,1.2,2,2.3.9,2.26.64,5.97,3.94,6.88-.55-1.91.43-5.07,2.51-4.61.5.11,1.51,1.44,2.54,1.92,1.18.54,6.39,3.04,6.76,3.02.55-.03,7.06-6.45,7.99-7.61,1.36-1.69,3.98-7.4,5.09-8.26.72-.56,2.08.74,2.25.52.23-.29-.15-4.28,1.91-6.3.92-.9,4.65-1.94,4.36-2.48-2.01-3.75-4.36-1.77-6.27-1.71-5.93.18-11.36-3.16-20.3-1.82-1.04.16-2.54,1.45-2.68,1.28-.37-.44-.22-2.57-1.92-3.26-1.12-.45.99,4.54-2.6,3.51.09-.15-.05-2.15-.13-2.24-1.23-1.32-.9,2.06-.99,2.3ZM138.88,850.12l.88-5.58-7.83.45c3.35,3.95-2.34,1.4-3.13,2.56-.26.38.24,1.52-.1,1.93-.47.57-5.63.17-4.1,4.34.43,1.17,2.15,1.1,2.73,1.48,1.35.88.31,2.14,1.4,2.22l2.35-7.99c2.13-.11,2.14,2.91,2.43,3.23.33.36,1.97-1.72,2.91-2.22.77-.41,2.17-.1,2.47-.41ZM109.9,754.23l2.23-.13-.06-1.11-2.23.13.06,1.11ZM110.96,792.32c.84-1.18-1.99-3.84-2.43-3.23-.84,1.18,1.99,3.84,2.43,3.23ZM99.46,787.37c-1.25,1.4,2.48,4.3,4.66,3.1-.3-1.44-3.78-4.09-4.66-3.1ZM104.64,799.42l-.13-2.24-1.11.06.13,2.24,1.11-.06ZM97.22,787.5l-.13-2.24-1.11.06.13,2.24,1.11-.06ZM96.46,813.35l2.23-.13-.06-1.11-2.23.13.06,1.11ZM97.27,846.98c.06-.15,1.73-.56,2.03-1.89,1.03-4.69-2.78-4.34-5.34-6.9l-.37,3.39-3.42-.93c-.86,3.93-3.36,8.41-1,12.44,3.33,5.7,3.69-2.08,3.93-2.4.32-.42,3.68-1.03,4.18-1.62.44-.53-.17-1.7,0-2.09-.11.12-3.23.3-3.35.19-.13-.11-.3-3.23-.19-3.35,1.09-1.22,4.63,1.98,3.55,3.16ZM83.41,781.56l-.13-2.24-1.11.06.13,2.24,1.11-.06ZM79.07,784.05c.13.11,3.23-.08,3.35-.19,1.21-1.13-1.99-.98-2.16-1.14-.51-.45-.06-1.83-.27-2.09-1.02-1.27-1.56,2.85-.92,3.42ZM77.63,778.52l-.13-2.24-1.11.06.13,2.24,1.11-.06ZM78.27,789.71c.07-.08-.05-2.16-.13-2.24-1.54-1.51-3,5.74.13,2.24ZM74.41,780.95l2.23-.13-.06-1.11-2.23.13.06,1.11ZM71.76,832.73c-1.59-5.72,3.74-9.82,3.58-15.37-.09-3.09.17-6.35.74-9.97.21-1.33,2.68-4.46,1.77-5.32-.11-.1-2.24.37-2.87-.96-.5,3.24-1.61,1.8-2.96,2.63-3.76,2.29-3.45,3.72-5.07,5.6-.55.64-1.5-1.19-4.39,2.41-.3.37-6.74,2.36-8.44,4.2-.63.69-.62,3.63-1.27,4.24-.44.42-1.65.05-1.96.33-.61.54.92,2.13.93,2.72.01.6-2.42,3.14-2.69,4.8-.25,1.53,1.5,7.76,1.61,9.82.11,2.05-2.52,3-1.98,4.49.26.72,1.33,1.09,1.75,1.72.57.85.6,2.04.7,2.15.9.95,4.87-2.02,5.44-1.34.33.39-.08,1.72.23,2.11.78.99,4.78-2.88,6.53-2.56-2.12-5.17-1.05-2.17,2.03-4.02,2.37-1.43,5.08-5.77,3.98-8.67l2.3,1ZM73.16,778.78l2.23-.13-.06-1.11-2.23.13.06,1.11ZM66.45,779.16l3.35-.19-.06-1.11-3.35.19.06,1.11Z" fill="#d2779d"/>
          <path d="M111.41,800.15c1.06,6.2-2.39,2.61-1.12.06.09-.17,1.01.11,1.12-.06Z" fill="#d2779d"/>
          <path d="M127.96,757.62c.56-.75-1.15-2.93,2.2-2.31.03,1.39,2.17,3.7-.32,4.49-2.01.63-4.7.63-6.23-1.31,1.21-3.02,4.21-.69,4.34-.87Z" fill="#d2779d"/>
          <path d="M141.6,759.14l-1.44-5.53c1.54-1.67,3.82,2.53,3.56,3.66-.13.56-1.81,2.21-2.12,1.87Z" fill="#d2779d"/>
          <path d="M124.25,750.04l-.19-3.35c1.11.93,3.27.82,3.42.93.58.41-1.78,3.07-3.23,2.43Z" fill="#d2779d"/>
          <path d="M148.12,755.4l-3.35.19c.93-1.11.82-3.27.93-3.42.41-.58,3.07,1.78,2.43,3.23Z" fill="#d2779d"/>
          <path d="M116.39,769.57c2.43-.25,3.22-2.36,4.54.86-2.43.25-3.22,2.36-4.54-.86Z" fill="#d2779d"/>
          <path d="M129.84,749.72l-.13-2.24,3.35-.19c.58.41-1.79,3.07-3.23,2.43Z" fill="#d2779d"/>
          <rect x="104.71" y="770.74" width="2.24" height="1.12" transform="translate(869.8 621.49) rotate(86.72)" fill="#d2779d"/>
          <rect x="125.77" y="766.16" width="2.24" height="1.12" transform="translate(885.09 596.16) rotate(86.72)" fill="#d2779d"/>
          <rect x="129.16" y="766" width="1.12" height="2.24" transform="translate(888.15 593.71) rotate(86.72)" fill="#d2779d"/>
          <rect x="126.07" y="800.28" width="5.6" height="2.24" transform="translate(-45.44 8.64) rotate(-3.27)" fill="#d2779d"/>
          <path d="M118.38,804.24c-.35.39-4.01-.71-4.57-1.42,1.57-2.61,2.1-.86,3.79-.7,1.39.13-.44-2.81,1.64-2.41l-.86,4.54Z" fill="#d2779d"/>
          <path d="M113.17,811.28c-1.55-.54-5.16-1.35-3.54-3.16.88-.99,4.2,1.12,3.54,3.16Z" fill="#d2779d"/>
          <rect x="122.69" y="799.48" width="1.12" height="3.36" transform="translate(916.04 632.25) rotate(86.72)" fill="#d2779d"/>
          <path d="M58.82,824.41c-.54.47-.98-.66-2.28,1.66-.92,1.63-2.81,3.22-4.11,2.16-.65-.54,3.22-6.81,3.51-8.04.23-.96-.47-1.33-.55-1.69-.18-.92,2.1-.4,2.55-1.8,1.01.98,1.18,7.47.88,7.72Z" fill="#d2779d"/>
          <path d="M68.2,830.62c-1.11,1.05-4.58-1.93-3.02,4.73l-2.44-2.68,5.65-9.84c2.46,1.54,1.18,1.83.77,3.87-.17.82-.82,3.79-.96,3.93Z" fill="#d2779d"/>
          <path d="M55.42,841.46l-3.28,1.37.6-9.01c4.83-1,.78,5.65,2.67,7.65Z" fill="#d2779d"/>
          <path d="M72.17,820.36l-2.24.12c1.31-1.85.14-7.92,3.03-5.78.23.17-1.87,3.93-.8,5.66Z" fill="#d2779d"/>
          <path d="M73.83,810.16c-3.13,3.51-1.67-3.75-.13-2.24.08.08.2,2.15.13,2.24Z" fill="#d2779d"/>
          <rect x="61.3" y="834.98" width="1.12" height="2.24" transform="translate(893.05 726.49) rotate(86.72)" fill="#d2779d"/>
          <rect x="59.18" y="818.24" width="2.24" height="1.12" transform="translate(874.3 711.72) rotate(86.72)" fill="#d2779d"/>
          <path d="M176.29,835.71l-1.11.07c.45-3.61-3.22-.78-2.49-4.35l3.35-.19.26,4.47Z" fill="#d2779d"/>
          <rect x="172.98" y="826.3" width="2.24" height="1.12" transform="translate(989.64 605.72) rotate(86.72)" fill="#d2779d"/>
          <rect x="192.05" y="826.33" width="2.24" height="1.12" transform="translate(1007.65 586.7) rotate(86.72)" fill="#d2779d"/>
          <path d="M186.22,793.62c-.95-.8-3.28-.82-3.42-.93-2.32-1.83,4.56-5.17,3.42.93Z" fill="#d2779d"/>
          <rect x="199.62" y="782.13" width="2.24" height="1.12" transform="translate(970.65 537.48) rotate(86.72)" fill="#d2779d"/>
        </g>
        <path d="M718.48,750.49c-1.54-.45-3.86,2.24-3.27,2.99.42.54,3.54.02,3.43,1.48-1,1.26-3.15.72-3.88,1.24-.5.36-.41,1.59-.82,1.84-.46.28-8.46,2.15-10.16,2.58-17.69,4.46-40,2.29-57.45-2.5-6.26-1.72-14.55-4.87-20.59-7.84-.85-.42-6.41-5.16-6.97-5.94-4.56-6.35.33-14.53,4.24-19.88,10.43-14.25,40.22-30.45,57.26-34.62,2.42-.59-.41,1.88,3.37-1.04,2-1.55,19.66-4.63,23.38-5.04,19.07-2.11,47.03,1.17,64.28,8.86,1.15.51,3.97.73,4.16,1.04.65,1.05-2.07,3.86-2.51,5.07-8.13,22.21-24.85,43.37-46.7,53.71-3.83,1.81-8.69,4.16-7.78-1.94ZM760.04,710.1l-1.26-7.86-2.96-5.82c-.16,1.63-2.33,7.98-2.04,8.33.39.49,2.85.23,3.41.98.48.65-.62,4.49,2.85,4.37ZM754.7,716.38l.52-7.43-5.91-1.49c-.91,2.05,4.51,1.86,3.93,4.1-.52,2.02-4.08,1.47,1.46,4.81ZM752.27,705.66c1.18-.69.32-6.69-1.46-7.77-.62-.37-5.66-2.01-2.16-3.24.58-.2,2.33,1.26,2.53,0-3.88-5.9-2.49-.78-3.11-.16-.55.55-1.69.75-2.15,1.59-.1.18-.74,3.93-.64,4.12.58,1.17,2.16,1.44,2.53,2.13.32.6-.36,1.64-.19,2.05.13.29,4.44,1.4,4.64,1.28ZM745.03,694.09c.82.2,1.64-.3,1.84-1.11.2-.82-.3-1.64-1.11-1.84-.82-.2-1.64.3-1.84,1.11s.3,1.64,1.11,1.84ZM645.72,732.6c34.08,4,69.19-4.39,97.03-24.21l-97.03,24.21ZM734.17,722.72l5.33-6.28c-2.33-.52-.23,1.52-3.38,1.72-1.79.11-1.34,3.31-1.96,4.56ZM720.79,730.82l.59-2.38-1.19-.29-.59,2.38,1.19.29ZM724.54,700.11l.59-2.38-1.19-.29-.59,2.38,1.19.29ZM720.38,701.61c.15-.06.32-1.62.58-2.38l-3.55-.87c-2.96,5.82-3.86,4.48,1.35,3.05.71-.19,1.41.29,1.62.2ZM701.6,700.79l.88-3.58-1.19-.29-.88,3.58,1.19.29ZM678.06,698.8c.9-2.1-.27-4.22-2.7-4.46l2.7,4.46ZM670.96,712.24c.11-.06.65-2.25.59-2.39-.98-2.12-5.12,5.13-.59,2.39ZM669.16,709.26l.59-2.38-1.19-.29-.59,2.38,1.19.29ZM658.15,712.89c.41-.89,3.67-2.98.88-3.58-.22,3.39-1.73,2.15-4.18,1.54,1.33,1.98-1.05,3.24-.86,3.54,1.76,2.86,2.35-1.75,4.16-1.5-2.2,4.76.07,4.92,2.39.59-.79-.16-1.59-.48-2.39-.59ZM647.73,714.12l4.45-2.7c-2.11-1.06-.99,2.29-2.37,1.95-1.37-.33.59-3.1.28-3.73-.22-.45-1.59.26-2.08.75-1.07,1.07.64,2.08-.28,3.73ZM639.53,752.59l.59-2.38-1.19-.29-.59,2.38,1.19.29ZM643.03,733.21l.88-3.58c-1.37.35-5.01.32-4.16,1.5.11.16,2.55.99,3.28,2.07ZM630.29,749.05l2.38.59.29-1.19-2.38-.59-.29,1.19ZM636.16,725.19c1.64-4.32-1.21-.91-4.49-2.37-1.64,4.32,1.21.91,4.49,2.37Z" fill="#6fa763"/>
        <g>
          <path d="M629.19,437.67c22.44-1.03,42.21-21.43,42.68-43.89.47-22.46-18.27-43.62-40.61-46.01-64.85-6.95-64.86,92.77-2.07,89.89Z" fill="#897d58" mix-blend-mode="multiply"/>
          <path d="M606.24,187.47c.74.64-1.11,6.8,3.31,8.95,7.29,3.55,12.93.89,15.16-6.64.54-1.81.67-6.34.88-6.61.35-.46,9.65,1.51,11.32,1.99,30.12,8.66,62.07,49.17,76.9,76.03,29.75,53.9,34.94,123.99-3.85,175.01-36.59,48.13-116.62,58.91-157.59,10.5-37.3-44.07-34.92-107.03-15.84-158.51,9.04-24.39,37.19-79.34,56.7-95.15,2.09-1.69,11.09-7.25,13.02-5.57ZM672.96,214.49c1.78-2.01-7.19-7.13-8.85-2.25l8.85,2.25ZM646.16,218.25l-2.44.23.11,1.22,2.44-.23-.11-1.22ZM649.95,219.13l-2.44.23.11,1.22,2.44-.23-.11-1.22ZM641.5,221.16l-2.44.23.11,1.22,2.44-.23-.11-1.22ZM648.08,225.47c-5.71.23-4.31,1.32.23,2.44l-.23-2.44ZM600.84,234.87c-.09-.08-2.36.14-2.45.23-1.6,1.74,6.41,3.05,2.45-.23ZM646.29,233.09l-5.09-2.03c.33,1.25-.02,4.29.59,4.78.75.6,3.41-1.13,2.54,2.32l-6.12.58.35,3.67c4.67.36.57-2.22.99-2.56,1.22-1,4.07,1.02,4.98.22,1.18-1.03,2.74-6.26,1.76-6.99ZM648.54,230.37l-2.44.23.11,1.22,2.44-.23-.11-1.22ZM638.99,233.73c-.96-.93-5.8,1.13-4.54,4.13l4.17-1.63c1.07.07.48-2.39.37-2.5ZM606.19,239.3l-8.68-.42.84,2.38,7.84-1.97ZM602.87,243.31l-2.67-2.21c-.08,2.6.13,2.78,2.67,2.21ZM651.79,238.69c.08-.09-.13-2.34-.23-2.44-1.62-1.68-3.14,6.52.23,2.44ZM663.04,240.1c.42-.41-2.8-3.54-4.62-3.33-.31.04-5.08,1.7-5.28,1.9-.42.43-.66,4.53-.94,4.86-.2.24-4.56.96-6.01,1.27-1.47.31-2.66,1.65-4.33-.24-1.08-.06-.47,2.42-.37,2.5,1.02.83,5.33-1.26,6.65-1.42.85-.11,3.66,1.24,4.31.35.19-.26,1.87-6.59,3.25-5.2.83.84-.9,3.17-.89,4.42.01,1.86,1.81,3.9,1.65,4.06-.67.69-3.42-.79-2.16,2.75,1.27-.22,3.21-2.6,4.08-2.67.26-.02,4.17,2.15,4.56,2.45,1.52,1.14.8,3.34,2.7,2.86.04-1.34-1.74-8.11-2.07-8.4-.36-.31-5.18,1.27-6.25-1.31-.89-2.15-.61-3.66,2.15-3.29-.22,5.66,1.29,2.78,4.53,3.39,2.1.39,2.12,3.89,2.89,3.32,2.92-2.13.89-2.21-.37-3.64-1.37-1.54-1.71-2.88-2.23-3.5-.16-.19-3,2.93-4.88-.17.11-1.45,3.14-.5,3.61-.96ZM673.93,237.84l-2.68-2.21c1,3.01-2.32,3.95-4.66,2.91l.46,4.89c2.74-1.35,3.44-5.41,6.88-5.59ZM596.98,246.33c.14-4.61-1.43-.49-5.01-.76l.11,1.22,4.89-.46ZM636.12,242.64c.08-.09-.13-2.34-.23-2.44-1.62-1.68-3.14,6.52.23,2.44ZM597.1,247.56l-2.45.23c1.31,1.55,1.14,4.02,2.79,3.44l-.34-3.67ZM627.12,248.4c-.08-.84-.82-1.45-1.66-1.37-.84.08-1.45.82-1.37,1.66.08.84.82,1.45,1.66,1.37.84-.08,1.45-.82,1.37-1.66ZM691.51,241.12c-.09-.08-2.36.14-2.45.23-1.6,1.74,6.41,3.05,2.45-.23ZM672.17,245.41c-.09-.08-2.36.14-2.45.23-1.6,1.74,6.41,3.05,2.45-.23ZM589.11,254.48c-.09-.08-2.36.14-2.45.23-1.6,1.74,6.41,3.05,2.45-.23ZM651.5,248.6l-3.21,5.23c2.04.05,3.8-.27,4.72-2.29.47-1.04-4.25.92-1.51-2.94ZM569.66,257.55l-2.44.23.11,1.22,2.44-.23-.11-1.22ZM676.07,247.51c-1.58.05-5.83,2.06-4.66,2.9.54.39,3.24-1.9,4.89-.46l-.23-2.45ZM582.12,258.84l-2.44.23.11,1.22,2.44-.23-.11-1.22ZM565.23,262.9l-2.44.23.11,1.22,2.44-.23-.11-1.22ZM633.72,256.44l-2.44.23.11,1.22,2.44-.23-.11-1.22ZM643.51,255.52l-2.44.23.11,1.22,2.44-.23-.11-1.22ZM658.42,256.58l-.23-2.44-1.22.11.23,2.44,1.22-.11ZM630.17,258.01l-2.44.23.11,1.22,2.44-.23-.11-1.22ZM671.76,254.09c-3.91.19-5.01.12-1.6,2.61l1.6-2.61ZM571.57,264.77l-3.67.35.11,1.22,3.67-.35-.11-1.22ZM648.33,267.4c.59-.57-2.76-3.2-3.9-2.1-.59.57,2.76,3.2,3.9,2.1ZM566.5,276.36c-2.6-.08-2.78.13-2.21,2.67l2.21-2.67ZM576.28,275.43l-2.44.23.11,1.22,2.44-.23-.11-1.22ZM620.66,274.94l-.23-2.44-1.22.11.23,2.44,1.22-.11ZM623.6,278.21c-.73-.61.49-2.83-1.59-2.16.04.98.75,2.27-.45,2.58-1.5.39-4.56-.76-4.09,1.55l8.56-.81c.28-2.18-1.68-.55-2.42-1.16ZM562.3,284.16l-2.44.23.11,1.22,2.44-.23-.11-1.22ZM645.93,281.2l-.35-3.67-1.22.11.35,3.67,1.22-.11ZM709.3,272.75c-3.36-.02-1.94.24-2.26,2.07-.53,3.07-.42,5.61,2.58,7.77.47-1.5,2.85-1.37,2.94-1.5,1.22-1.72-3.28-6.13-3.26-8.34ZM622.81,284.61l-.23-2.44-1.22.11.23,2.44,1.22-.11ZM550.66,290.09l-1.01,9.71,1.91.2,1.01-9.71-1.91-.2ZM629.39,288.93c.81-.78-3.33-3.22-5.12-1.98.45,5.49.06,3.19,2.23,2.41,1.04-.37,2.71-.26,2.89-.43ZM623.16,288.29c-.15-.11-3.55.21-3.67.34-.94,1.06,2.07,6.24,3.75,7.05,1.76-1.12-.93-2.82-1.06-4.2-.11-1.3,1.37-2.92.98-3.19ZM631.95,289.92l-.23-2.44-1.22.11.23,2.44,1.22-.11ZM557.22,295.74l-2.44.23.11,1.22,2.44-.23-.11-1.22ZM639.4,290.45c-.15-.09-1.48.08-2.48-.4-1.14-.55-4.27-3.24-2.47.25,1.54,2.98,6.61,1.15,4.95.16ZM644.41,291.21l-.23-2.44-1.22.11.23,2.44,1.22-.11ZM713.14,287.2l-.35-3.67-1.22.11.35,3.67,1.22-.11ZM637.42,295.57c.59-.57-2.76-3.2-3.9-2.1-.59.57,2.76,3.2,3.9,2.1ZM552.95,315.88c.69-3.15-.32-6-.87-9.17-.26-1.52.55-4.64-1.62-4.17.33,3.04.51,6.12.86,9.17.17,1.48-.48,4.65,1.62,4.16ZM538.57,307.37l-.23-2.44-1.22.11.23,2.44,1.22-.11ZM610.74,300.56l-.23-2.44-1.22.11.23,2.44,1.22-.11ZM626.64,299.06l-.23-2.44-1.22.11.23,2.44,1.22-.11ZM634.32,302.03c.08-.09-.13-2.34-.23-2.44-1.62-1.68-3.14,6.52.23,2.44ZM605.31,308.48l-2.44.23.11,1.22,2.44-.23-.11-1.22ZM611.66,310.35l-2.44.23.11,1.22,2.44-.23-.11-1.22ZM602.68,319.83c2.58,5.54,5.04-2.31,3.32-4.02-1.68-1.67.31,5.38-3.32,4.02ZM633.26,316.94c-2.03-.65-4.51,2.86-3.32,4.01,1.33,1.29.41-3.9,3.44-2.79l-.12-1.22ZM603.03,323.5c-.16-.11-2.71-.04-3.79-.88-1.36,2.26,3.83,3.58,4.01,3.32.07-.1-.13-2.37-.23-2.44ZM720.45,312.42c-2.61.15-2.38-.34-2.27,2.06.06,1.35.39,6.51.64,6.73.69.63,3.19-.99,3.44-2.23.51-2.61-1.44-4.27-1.8-6.56ZM625.28,323.87c-1.6-.65-4.09,2.36-3.44,2.79l3.67-.34-.23-2.44ZM598.48,327.63l-2.44.23.11,1.22,2.44-.23-.11-1.22ZM618.4,329.45c-1.31-1.55-1.14-4.02-2.79-3.44l.34,3.67,2.45-.23ZM530.56,337.49c-.56-.48-.41-1.49-.46-2.18-3.05.16-2.15,8.36-1.64,8.79.26.22,4.56-1.54,4.73-1.72.17-.19-.23-4.54-.56-4.73-.4-.23-1.56.29-2.08-.15ZM612.4,331.25c.08-.09-.13-2.34-.23-2.44-1.62-1.68-3.14,6.52.23,2.44ZM561.25,338.54l-.35-3.67-1.22.11.35,3.67,1.22-.11ZM626.08,332.42c-.23-5.71-1.32-4.31-2.45.23l2.45-.23ZM620.08,334.22c.59-.57-2.76-3.2-3.9-2.1-.59.57,2.76,3.2,3.9,2.1ZM608.96,334.04l-2.44.23.11,1.22,2.44-.23-.11-1.22ZM601.74,335.96l-2.44.23.11,1.22,2.44-.23-.11-1.22ZM614.08,336.03l-2.44.23.11,1.22,2.44-.23-.11-1.22ZM620.31,336.67l-2.44.23.11,1.22,2.44-.23-.11-1.22ZM608.43,341.5l-2.44.23.11,1.22,2.44-.23-.11-1.22ZM622.11,342.67c.59-.57-2.76-3.2-3.9-2.1-.59.57,2.76,3.2,3.9,2.1ZM639.01,338.61l-2.44.23.11,1.22,2.44-.23-.11-1.22ZM668.4,417.05c2.77-3.35,7.64-16.29,8.12-20.9.16-1.51-.51-3.26-.46-4.89.04-1.34.95-2.58.93-3.83-.01-.79-2.11-9.33-2.51-10.61-4.03-12.55-15.73-25.58-28.14-30.03-8.45-3.03-22.2-3.82-30.7-1.03-38.42,12.62-38.36,76.95,2.41,88.34,13.86,3.87,31.91.48,42.64-9.34,1.58-1.45,6.66-6.45,7.71-7.71ZM530.95,357.44c-2.64-2.18-2.12,1.91-2.32,3.14-.13.77-1.43,1.73-.89,2.1,2.04,1.4,4.75-3.96,3.21-5.23ZM579.35,360.28l-.23-2.44-1.22.11.23,2.44,1.22-.11ZM724.31,366.35c-1.33-1.32-3.08,1.46-3.39,3.4-.19,1.23-.43,3.86-.51,5.22-.15,2.5-.27,3.71,2.11,5.13l2.24-7.18c-1.89-1.73-.03-6.14-.46-6.56ZM537.89,392.68c-.27-.33-2.59.24-3.59.23,2.03,4.49,1.44,2.84,4.59,3.26,1.35.18,2.06.63,3.21.94.73-6.62-3.61-1.84-3.83-2.14-.35-.48,0-1.82-.38-2.28ZM722.45,382.53c-.08-.84-.82-1.45-1.66-1.37-.84.08-1.45.82-1.37,1.66.08.84.82,1.45,1.66,1.37.84-.08,1.45-.82,1.37-1.66ZM721.37,387.6l-.23-2.44-1.22.11.23,2.44,1.22-.11ZM707.48,423.46l-2.44.23.11,1.22,2.44-.23-.11-1.22ZM575.22,459.27l-2.72-1.49,5.18,2.6c-2.21,5.52-.49,3.18,3.43,3.34,2.89.12,4.19,4.37,6.75.01-1.42-2.47-3.5-.22-3.61-.37-.33-.44-.03-1.59-.52-2.06-2.24-2.14-8.14-1.79-8.51-2.04ZM626.77,470.55l-5.82,3.63c2.15,2.58,3.25,1.26,5.47.09,1.21-.64.49-3.6.35-3.72Z" fill="#d3d977" mix-blend-mode="multiply"/>
        </g>
        <path d="M332.38,217.24l2.15,3.24c-.43-1.43-1.11-3.27,0-4.51,1.07-1.22,8.23-3.76,10.54-4.97,36.56-19.15,85.46-36.62,122.6-8.75,36.03,27.04,36.98,102.16,9.35,135.51-6.92,8.36-15.65,13.49-25.05,18.68-15.57,8.59-32.09,16.07-47.8,23.65-33.45,16.14-70.49,34.89-104.7,8.98-24.81-18.79-42.95-68.17-39.07-98.46,4.56-35.58,44.58-56.31,72-73.37ZM472.69,246.65c.89-1.44-6.19-11.59-7.55-13.9-.7-1.18-1.78-3.9-2.85-1.09-.21.54.33,4.45-.05,4.99-.29.4-2.19.6-3.26,1.62-2.24,2.1-2.55,11.93-1.12,14.21,1.58,2.53,4.98,1.5,6.82,2.09,1.61.51,7.34,5.27,8.56,3.41.43-.66-2.47-1.53-3.07-2.5-.59-.96-1.98-6.01-1.81-6.3.25-.42,4.13-2.19,4.34-2.52ZM477.42,273.4c.64-1.46-3-3.67-3.33-2.92-.64,1.46,3,3.67,3.33,2.92ZM476.53,288.91l2.37-.64-.32-1.18-2.37.64.32,1.18ZM476.41,297.86c-.79-2.39.92-2.28-1.09-4.13-1.34-1.24-2.82-3.21-4.71-3.21l5.8,7.34ZM473.84,288.37l-.64-2.37-1.18.32.64,2.37,1.18-.32ZM463.41,273.37l4.42-2.47-3.01-1.73c.97,2.07.53,2.76-1.73,3.02l.32,1.18ZM476.81,318.11l-.64-2.37-1.18.32.64,2.37,1.18-.32ZM466.94,286.42l-.96-3.56-1.18.32.96,3.56,1.18-.32ZM457.5,260.97l-.96-3.56-1.18.32.96,3.56,1.18-.32ZM461.36,275.2c.02-3.6-2.04-1.42-2.86-1.97-.7-.46-.54-1.92-.8-2.13-1.82-1.5-.53,4.52,3.66,4.1ZM469.39,304.85l-.64-2.37-1.18.32.64,2.37,1.18-.32ZM472.18,319.7c.81-.22,1.29-1.05,1.07-1.87-.22-.81-1.05-1.29-1.86-1.07-.81.22-1.29,1.05-1.07,1.87.22.81,1.05,1.29,1.86,1.07ZM456.94,277.68c.33-.72-3.03-5.47-3.65-4.1-.83,1.82,3.17,5.17,3.65,4.1ZM440.53,231.21c4.57-.64.24-1.5-.1-5.06l-1.18.32,1.28,4.74ZM454.03,281.01l2.37-.64-.32-1.18-2.37.64.32,1.18ZM467.97,323.06c-.36-2.58-.6-2.71-3.01-1.73l3.01,1.73ZM447.7,262.36l2.37-.64-.32-1.18-2.37.64.32,1.18ZM448.54,274.86c.99.69,2.6-5.55,2.27-5.7-2.65-1.23-2.98,5.21-2.27,5.7ZM463.22,324.34l-.64-2.37-1.18.32.64,2.37,1.18-.32ZM441.99,260.09c.11.06,2.28-.52,2.37-.64,1.38-1.88-6.96-1.99-2.37.64ZM445.1,266.88c.65-1.37-3.12-3.87-4.84-3.78l.97,3.53,3.87.25ZM439.5,269.67l-.64-2.37-1.18.32.64,2.37,1.18-.32ZM456.09,340.28l-.64-2.37-1.18.32.64,2.37,1.18-.32ZM430.13,263.3l-.64-2.37-1.18.32.64,2.37,1.18-.32ZM417.64,219.45l-3.46-6.76-1.95,1,3.46,6.76,1.95-1ZM441.24,327.75l2.37-.64-.32-1.18-2.37.64.32,1.18ZM423.24,261.35l-.64-2.37-1.18.32.64,2.37,1.18-.32ZM426.13,272.02l-.64-2.37-1.18.32.64,2.37,1.18-.32ZM408.17,252.7l7.11-1.93-.32-1.18-7.11,1.93.32,1.18ZM425.55,302.73l2.37-.64-.32-1.18-2.37.64.32,1.18ZM430.47,325.58c.11.06,2.28-.52,2.37-.64,1.38-1.88-6.96-1.99-2.37.64ZM413.86,268.98l2.37-.64-.32-1.18-2.37.64.32,1.18ZM408.14,243.71c.68-.81-1.4-5.91-3.83-5.23l1.06,8.62c2.24-.14-.13-1.94,1.35-2.93.41-.27,1.14-.14,1.41-.45ZM429.17,334.85l1.73-3.01c-2.58.36-2.71.6-1.73,3.01ZM430.77,340.77l2.37-.64-.32-1.18-2.37.64.32,1.18ZM419.72,309.4c-.91-1.87,1.11-3.33-.64-4.9-1.56-1.4-2.98-3.72-5.16-2.43l5.8,7.34ZM391.57,257.2l11.21-5.58c-2.48.86-5.29,1.14-7.71,2.08-.87.34-4.2,2.07-3.5,3.5ZM424.48,331.67c-.08-.31-3.67-4.73-4.4-4.53-1.04.28-1.43,3.14-.59,4.51,1.38,2.25,5.62,2.49,4.99.02ZM397.94,247.84c.14-.31-.58-1.08-.48-1.78.08-.53,1.39-1.79.7-2.1-.77-.35-7.71,1.98-5.61,2.79.16.06,1.45-.33,2.51-.02.8.23,2.58,1.78,2.87,1.11ZM395.65,267.55c.05-.11-.31-1.44-.05-2.53.21-.86,1.38-1.93,1.29-2.26-.13-.48-2.45-1.56-3.44-.98-3,1.77,1.51,7.21,2.19,5.77ZM411.52,316.72c-.31-2.3-1.11-4.11-3.65-4.1l1.28,4.74,2.37-.64ZM379.98,228.52c.33-.72-3.03-5.47-3.65-4.1-.83,1.82,3.17,5.17,3.65,4.1ZM411.68,354.86l2.37-.64-.32-1.18-2.37.64.32,1.18ZM376.08,242.31c-.38-6.13-4.74-5.35-9.36-6.37-.05,4.69,3.92,3.32,6.78,4.47,1.78.72.62,2.81,2.58,1.9ZM369.39,250.49c4.57-.64.24-1.5-.1-5.06l-1.18.32,1.28,4.74ZM365.09,244.02l-.64-2.37-1.18.32.64,2.37,1.18-.32ZM372.79,281.72c.81-.22,1.29-1.05,1.07-1.87-.22-.81-1.05-1.29-1.86-1.07-.81.22-1.29,1.05-1.07,1.87.22.81,1.05,1.29,1.86,1.07ZM357.24,238.51c3.63-1.41-.68-6.06-1.29-4.74l1.29,4.74ZM379.85,312.57l-.64-2.37-1.18.32.64,2.37,1.18-.32ZM361.95,251.23c.09-.16-.8-3.46-.96-3.56s-3.45.81-3.56.96c-.18.26,3.2,4.88,4.52,2.59ZM388.71,368.73c.14-5.04-6.6-4.99-4.36-2,.45.61,3.28,2.02,4.36,2ZM351.36,273.19l-2.79-5.61c-3.06.28,2.08,7.07,2.79,5.61ZM342.76,260.25c-.41.71,1.87,7.13,3.7,6.63,3.62-.98-1.65-10.2-3.7-6.63ZM338.7,235.89c.64-1.46-3-3.67-3.33-2.92-.64,1.46,3,3.67,3.33,2.92ZM352.3,290.76c.06-.11-.52-2.28-.64-2.37-1.88-1.38-1.99,6.96.64,2.37ZM367.59,370.63l-.64-2.37-1.18.32.64,2.37,1.18-.32ZM332.21,254.2l-.64-2.37-1.18.32.64,2.37,1.18-.32ZM357.7,352.94c.66-1.16-4.66-6.07-5.16-4.96-1,2.23,3.76,7.4,5.16,4.96ZM330.34,280.17c.84-1.66-3.29-2.56-3.04-4.27l-2.44-1.89c1.15,1.79-1.17,3.85-.97,4.68.18.75,2.22,2.15,2.03,3.94,2.26-.11.25-2.01.55-2.69.41-.92,3.67.6,3.86.23ZM341.68,337.22l-6.79-3.87-.87,1.52,6.79,3.87.87-1.52ZM313.12,268.28l5.93-1.61-.32-1.18-5.93,1.61.32,1.18ZM309.24,268.06l2.37-.64-.32-1.18-2.37.64.32,1.18ZM330.22,364.21c.64,3.82,1.45,6.12,5.21,7.49l1.83-4.95-7.04-2.54ZM302.99,268.49c1.82,2.65,3.38,2.01,3.56-.96l-3.56.96ZM295.34,273.1l7.11-1.93-.32-1.18-7.11,1.93.32,1.18ZM299.93,294.77c.03-3.04-1.78-3.01-3.08-4.23-1.54-1.44-2.86-3.78-5.09-2.46,1.14,3.43,4.78,5.89,8.17,6.69ZM296.18,285.61c.83-1.82-3.17-5.17-3.65-4.1-.33.72,3.03,5.47,3.65,4.1ZM295.35,334.2c-.59-1.31-.46-2.07.27-3.26l-4.24-2.03c.54,2.56.93,5.27,3.97,5.29ZM282.38,295.71c3.59-2.57,1.2-6.93-2.79-5.61l2.79,5.61ZM284.94,305.2c.43-.93-1.66-7.23-4.3-6.47-.16,2.02,3.54,8.11,4.3,6.47Z" fill="#8e8554"/>
        <g>
          <path d="M122.4,100.68c3.01.61,10.58,3.14,12.05,5.47.59.93-.85,2.26-.55,2.46.55.37,2.88-.61,3.57-.04.62.51,3.49,3.37,4.7,4.52,1.24,1.18,8.77,12.56,8.82,13.63.12,2.73-3.61,3.45,2.5,3.04l12.56,28.34c11.14,28.69,17.85,60.78,30.19,88.83,9.72,22.08,28.28,36.9,31.68,62.37,2.19,16.43-1.77,41.88-7.18,57.71-3.49,10.2-9.23,24.21-18.16,30.36-16.31,11.24-45.39,21.35-65.11,21.2-27.04-.21-41.2-9.4-64.08-20.81-8.64-4.31-29.18-11.84-34.15-19.13-.98-1.44-2-4.76-2.27-6.59-.69-4.57-1.61-16.56-1.2-20.84.11-1.2,1.53-.71,2.48-.82.39-2.31-2.58-.24-2.62-1.75-.03-1.32,1.03-2.36,1.08-3.7.11-3.67-1.98-14.27.31-16.06.89-.69,2.24-.57,2.42-.72,1.12-.93-.12-3.74-2.52-1.07-.01-4.29-.81-8.65-.8-12.93.11-52,24.88-84.51,41.56-130.53,6.55-18.06,7.19-39.57,14.5-55.73,7.1-15.7,20.95-26.47,21.75-45.78.4-9.72-1.03-21.06-.51-30.71.54-9.94,11.92-33.76,17.91-42.22.91-1.29,7.49-8.9,8.06-9.11,2.24-.82,7.47,7.61,7.4,10.03-.04,1.22-4.1,8.32-5.03,10.71-9.87,25.57-16.93,52.51-19.38,79.88ZM117.62,103.43c-1.96.48-3.28-.21-4.97-.95l.14,2.45,4.9-.28-.07-1.22ZM125.19,106.68l-.21-3.68-1.22.07.21,3.68,1.22-.07ZM131.54,110.01l-2.73-4.76-2.17,5.04,4.91-.28ZM127.93,111.45l-2.45.14.07,1.22,2.45-.14-.07-1.22ZM136.52,110.96l-2.45.14.07,1.22,2.45-.14-.07-1.22ZM132.45,128.31c.3-.25,0-5.51-.23-6.67-.39-1.98-2.48-4.04-2.52-4.79-.07-1.29,3.92-2.15.15-4.29-.48,1.56-3.18.96-2.8,1.96.24.66,1.33,1.43,1.18,2.35-.39,2.42-8.62,3.39-10.78,5.59-2.17,2.22.59,4.03-6.52,3.48-1.33-.1-2.37-1.03-3.7-1.09-.62-.02-.26,4.24-4.2,2.77-.15,3.32.18,1.94,1.95,2.35,3.95.92,6.47.34,9.75.85,2.27.36,6.33,3.16,8.98,3.04.66-.03,5.15-2.26,5.87-2.78,1.06-.77.41-1.86.86-2.32.5-.52,1.69-.18,2.03-.47ZM138.94,131.73l-2.45.14.07,1.22,2.45-.14-.07-1.22ZM140.59,139.02l-2.45.14.07,1.22,2.45-.14-.07-1.22ZM103.58,180.51l-.14-2.45-1.22.07.14,2.45,1.22-.07ZM99.24,190.61l-2.45.14.07,1.22,2.45-.14-.07-1.22ZM80.91,192.89l-2.45.14.07,1.22,2.45-.14-.07-1.22ZM77.3,194.33l-2.45.14.07,1.22,2.45-.14-.07-1.22ZM93.88,204.45l-2.45.14.07,1.22,2.45-.14-.07-1.22ZM133.98,216.92l-2.45.14.07,1.22,2.45-.14-.07-1.22ZM139.02,219.09l-2.45.14.07,1.22,2.45-.14-.07-1.22ZM138.22,226.52c-2.6-.17-2.78.03-2.31,2.59l2.31-2.59ZM148.52,234.54l-2.59-2.31c-.17,2.6.03,2.78,2.59,2.31ZM143.55,233.59l-3.68.21.07,1.22,3.68-.21-.07-1.22ZM140.01,236.26c-4.65-.88-3.23,2.42-5.89,4.64l2.63,2.92c2.64.1.22-3.88,1.08-4.9.54-.64,3.38.79,2.17-2.67ZM147.58,239.51l-2.59-2.31c-.17,2.6.03,2.78,2.59,2.31ZM141.45,239.87l-2.45.14.07,1.22,2.45-.14-.07-1.22ZM145.48,245.79l-.14-2.45-1.22.07.14,2.45,1.22-.07ZM136.96,247.51l-2.45.14.07,1.22,2.45-.14-.07-1.22ZM143.06,268.07c-.02-5.71-1.16-4.36-2.45.14l2.45-.14ZM132.02,268.7c.08-.09-.04-2.34-.14-2.45-1.56-1.73-3.38,6.4.14,2.45ZM143.13,269.3l-2.45.14.07,1.22,2.45-.14-.07-1.22ZM137.49,278.23c1.82-8.75-.85-8.01-1.22.07l1.22-.07ZM142.19,274.28c-1.29-.92-4.21,2.18-3.54,2.66,1.29.92,4.21-2.18,3.54-2.66ZM142.61,281.63c-.05-3.92.06-5.01-2.55-1.7l2.55,1.7ZM138.79,279.39l-2.45.14.07,1.22,2.45-.14-.07-1.22ZM135.18,280.83l-2.45.14.07,1.22,2.45-.14-.07-1.22ZM57.03,291.46l-2.45.14.07,1.22,2.45-.14-.07-1.22ZM69.37,291.99c-.15-.12-2.71-.14-3.75-1.02-1.44,2.21,3.69,3.72,3.89,3.47.08-.1-.04-2.38-.14-2.45ZM64.46,292.27l-2.45.14.07,1.22,2.45-.14-.07-1.22ZM74.27,291.7c-5.2-.46-1.59,6.92.1,1.84.18-.54-.14-1.25-.1-1.84ZM53.49,294.13l-2.45.14.07,1.22,2.45-.14-.07-1.22ZM64.6,294.72c-.07-.1-2.37.06-2.46.15-.53.55,2.13,1.76.75,2.41-4.34,2.04-7.16.65-11.58,1.91,0,6.99,1.31,1.65,3.13,1.42.92-.12,2.58,1.48,3.69-.58,1.06-.22.84,2.32.75,2.41-.27.29-7.36-.33-7.25,2.26.01.25,3.98,2.86,2.69,4.15-.29.29-3.07-.06-4.3.24-1.3.31-3.26,2.06-4.22,1.48-.51-.31,3.24-3.41-1.36-2.38.18.98-.02,3.44.23,3.63.25.18,5.49,1.92,5.84,1.96.86.1,1.58-.64,2.24-.69s1.5.91,1.71.61c.28-.41.05-1.65.57-2.44.88-1.33,2.55-1.12,2.92-1.49.6-.61-.66-5.65-.23-6.02.82-.7,4.73,1.28,3.53-2.68l2.45-.14c1.01.89-4.02,13.39,2.84,6.6l-2.56-1.7,6.13-.35c.82-5.16-4.08-.07-4.98-.94l-1.58-6.06,3.57-2.05c-.24-1.53-1.97,1.09-2.34.71-.44-.45.05-2-.22-2.42ZM72.17,297.98c-2.84-2.1-7.35,4.62.07,1.22-.11-.4.09-1.1-.07-1.22ZM110.19,295.8c-.95-.71-7.34,1.79-5.99,2.8.95.71,7.34-1.79,5.99-2.8ZM132.77,303.11c-1.62-2.28-1.66-4.55-1.65-7.28l-1.22.07.42,7.36,2.45-.14ZM74.83,301.52l-3.68.21.07,1.22,3.68-.21-.07-1.22ZM113.14,304.24c.71-7.35-3.73-1-2.45.14l2.45-.14ZM40.77,308.39c.08-.09-.04-2.34-.14-2.45-1.56-1.73-3.38,6.4.14,2.45ZM107.01,304.59l-.14-2.45-1.22.07.14,2.45,1.22-.07ZM126.7,304.69l-.14-2.45-1.22.07.14,2.45,1.22-.07ZM79.01,309.89c.08-.09-.04-2.34-.14-2.45-1.56-1.73-3.38,6.4.14,2.45ZM83.98,310.83l-.14-2.45-1.22.07.14,2.45,1.22-.07ZM102.63,308.51c-.05-.84-.77-1.48-1.6-1.43s-1.48.77-1.43,1.6c.05.84.77,1.48,1.6,1.43.84-.05,1.48-.77,1.43-1.6ZM134.48,311.63c.75-.76-.26-7.13-4.03-5.92l1.55,5.45c-.11,1.07,2.39.56,2.48.47ZM110.9,308.06l-3.68.21.07,1.22,3.68-.21-.07-1.22ZM123.16,307.36l-2.45.14.07,1.22,2.45-.14-.07-1.22ZM60.82,314.62l-2.59-2.31c-.17,2.6.03,2.78,2.59,2.31ZM116.08,312.68c.92-1.29-2.18-4.21-2.66-3.54-.92,1.29,2.18,4.21,2.66,3.54ZM41.12,314.52l-2.45.14.07,1.22,2.45-.14-.07-1.22ZM125.9,312.12l-2.59-2.31c-.17,2.6.03,2.78,2.59,2.31ZM130.66,309.39c-3.92.05-5.02-.06-1.7,2.55l1.7-2.55ZM55.91,314.9c-.61-.67-2.21,2.43-2.91,2.47-1.07.06-4.29-3.5-5.63-1.37,2.22,2.1,5.08,3.21,8.15,2.61,1.08-.21.54-3.57.4-3.72ZM108.94,316.78c-.31-7.75-1-5.63-2.45.14l2.45-.14ZM113.63,312.83c-2.6-.17-2.78.03-2.31,2.59l2.31-2.59ZM122.5,317.24c.92-1.29-2.18-4.21-2.66-3.54-.92,1.29,2.18,4.21,2.66,3.54ZM48.76,319.01l-3.68.21.07,1.22,3.68-.21-.07-1.22ZM127.27,314.51l-2.45.14.07,1.22,2.45-.14-.07-1.22ZM43.93,320.51c-2.24-.72-4.55,2.92-3.47,3.89,1.99,1.77,2.87-2.18,3.47-3.89ZM90.68,320.29l-.14-2.45-1.22.07.14,2.45,1.22-.07ZM100.42,318.5c-7.36-.71-1,3.73.14,2.45l-.14-2.45ZM105.33,318.22l-2.45.14.07,1.22,2.45-.14-.07-1.22ZM116.44,318.82l-2.45.14.07,1.22,2.45-.14-.07-1.22ZM128.84,320.56l-.14-2.45-1.22.07.14,2.45,1.22-.07ZM95.8,323.69c-2.84-2.1-7.35,4.62.07,1.22-.11-.4.09-1.1-.07-1.22ZM128.91,321.79l-2.45.14.07,1.22,2.45-.14-.07-1.22ZM42.04,330.46l-.14-2.45-1.22.07.14,2.45,1.22-.07ZM106.91,324.29l-2.45.14.07,1.22,2.45-.14-.07-1.22ZM104.8,330.55c.54-.49-1.49-1.68-1.96-2.37-.53-.76-1.06-3.53-1.99-2.32-.47.61,1.74,6.69,3.96,4.69ZM87.56,330.31l-2.59-2.31c-.17,2.6.03,2.78,2.59,2.31ZM46,335.16l-.14-2.45-1.22.07.14,2.45,1.22-.07ZM140.35,328.54c-.95-1.26-4.03,3.22-5.95,2.82l1.43,3.57,2.92-3.85,4.3.97c.35-2.13-1.56-.64-2.34-1.31-.58-.49-.11-1.89-.35-2.2ZM117.42,335.98c.08-.09-.04-2.34-.14-2.45-1.56-1.73-3.38,6.4.14,2.45ZM130.98,336.44l-2.59-2.31c-.17,2.6.03,2.78,2.59,2.31ZM102.91,340.51c.61-.55-2.64-3.3-3.82-2.24-.61.55,2.64,3.3,3.82,2.24ZM80.76,340.55l-2.45.14.07,1.22,2.45-.14-.07-1.22ZM137.4,340.99l-.21-3.68-1.22.07.21,3.68,1.22-.07ZM102.98,341.74c-.15-.11-3.8-.34-3.63.93l-.92,5.48c1.26-.27,4.87-6.18,4.55-6.41ZM145.91,339.28l-2.45.14.07,1.22,2.45-.14-.07-1.22ZM83.78,350.22c.09-.09-.06-2.36-.15-2.45-.22-.23-5.29,1.99-3.46,3.89.94-.99,3.47-1.3,3.61-1.44ZM97.52,348.17c-.05-.84-.77-1.48-1.6-1.43s-1.48.77-1.43,1.6c.05.84.77,1.48,1.6,1.43s1.48-.77,1.43-1.6ZM77.72,351.8l-.14-2.45-1.22.07.14,2.45,1.22-.07ZM94.79,350.92l-4.88-1.05c-.14,4.87,3.52,2.17,3.7,2.35.72.73-.83,3.3,2.71,2.2l-1.53-3.5ZM85.22,353.83c-.28-.2-1.18.35-1.84.1-.5-.19-1.47-1.73-1.91-1.12-.48.66-.37,4.7,2.05,3.57.55-.26,2.1-2.27,1.7-2.55ZM112.27,353.51l-.14-2.45-1.22.07.14,2.45,1.22-.07ZM148.93,348.95c-.09-.08-2.37.05-2.45.14-1.66,1.68,6.3,3.29,2.45-.14ZM162.63,351.85l-.14-2.45-1.22.07.14,2.45,1.22-.07ZM152.89,353.64l-.14-2.45-1.22.07.14,2.45,1.22-.07ZM92.72,355.86l-4.9.28.07,1.22,4.9-.28-.07-1.22ZM97.63,355.58c-2.6-.17-2.78.03-2.31,2.59l2.31-2.59ZM157.91,376.73c1.38.33,3.18-.42,4.97.95.89-1.17-2.86-10.21-2.87-11.56-.01-2.33,5.12-4.15,5.63-4.65.7-.68-2.65-.73.24-2.6,1.28-.82,2.8-2.13,3.09-3.68-1.38.77-6.95,1.51-7.17,1.8-.32.43.23,1.7-.09,2.14-.35.47-4.52.09-5.94,1.74l4.55-6.41-12.82.79c-.81-.04-1.09-4.85-3.26-2.33-.14.16,1.47,3.21,2.17,3.62.92.55,3.05.9,4.25.93-1.31,2.85-.22,3.18-2.84,3.89-1.92.52-2.19-.71-1.71,2.52l8.51-1.72c-1.06,2.56,2.75,5.06,2.77,5.38.08,1.05-3.38,1.81-3.5,3.28-1.26-.07-4.61.53-4.91.28-.23-.19-.81-1.97.75-2.47,2.53-.8.91-.3.88-1.29-.09-2.93,1.87-2.72-3.22-2.3,1.08,1.21,1.26,3.2-.4,3.71-2.97.92-4.68-2.19-5.04-2.17-.14,0-2.4,1.96-1.07,2.48,1.37,2.76-.36,4.3,3.26,3.54l2.31-2.59-1.96,8.72c2.18.34.66-1.66,1.2-2.39.74-1.01,5.28-1.2,6-.48.5.5-.14,4.42.3,4.89.56.6,4.56-5.39,8.04-.47.58.82-1.81,4.16,2.05,4.82-.29-1.9.31-4.64-.9-6.17-.69-.86-3.11-1.16-3.27-2.21ZM141.99,356.73c-.64-.47-5.98,1.83-4.76,2.73,1.61,1.19,5.71-2.04,4.76-2.73ZM107.79,361.15c-1.92-1.46-4.33,3.68-4.63,5.18,4.9.17,3.07-.18,3.66-3.11.16-.77,1.48-1.67.97-2.07ZM101.94,366.4l-.14-2.45-1.22.07.14,2.45,1.22-.07ZM138.81,365.52c-.15-.12-2.71-.14-3.75-1.02-.05,5.53,6.52,3.21,3.75,1.02ZM170.98,368.6l-.14-2.45-1.22.07.14,2.45,1.22-.07ZM129.34,372.21l-.14-2.45-1.22.07.14,2.45,1.22-.07ZM134.39,374.39l-.14-2.45-1.22.07.14,2.45,1.22-.07ZM127.1,376.03l-.14-2.45-1.22.07.14,2.45,1.22-.07ZM140.52,374.04c-5.2-.46-1.59,6.92.1,1.84.18-.54-.14-1.25-.1-1.84ZM136.98,376.7l-6.13.35.07,1.22,6.13-.35-.07-1.22ZM150.55,377.15c-.09-.08-2.37.05-2.45.14-1.66,1.68,6.3,3.29,2.45-.14ZM137.34,382.83c-.02-5.71-1.16-4.36-2.45.14l2.45-.14ZM175.22,378.2l-2.45.14.07,1.22,2.45-.14-.07-1.22ZM150.76,380.83c-.13-.13-1.66.18-2.45.14,2.92,3.82-.38,1.82-1.03,2.58-.38.44,1.99,1.96,1.39,3.55.97-1.07,3.48-1.28,3.6-1.44.19-.23-1.34-4.65-1.51-4.84ZM141.02,382.62l-2.45.14.07,1.22,2.45-.14-.07-1.22ZM144.77,383.64c-2.93-2.84-3.19,4.84-3.4,5.12-.3.4-4.07-3.58-6.27-2.1l3.89,3.46c-1.89.77-4.07-1.07-5.39-.76-.7.17-3.64,1.19-3.12,2.48,1.5.43,2.93-2.2,3.65-.71.46.93.88,2.57,2.01,2.84,3.61.88,2.63-1,3.53-2.62.82-1.47,3.6-1.99,4.23-1.51.49.37-2.21,4.04-2.2,4.43.03,1.21,4.24,2.36,5.01,1.55.36-.38-1.06-1.09-.82-2.44.18-1,2.08-3.53,1.68-3.74-.74-.4-2.63,1.16-3.24-2.31-.23-1.32.9-3.25.44-3.71ZM157.17,385.38l-.14-2.45-1.22.07.14,2.45,1.22-.07ZM139.48,398.7c-.33-5.01-2.77-2.57-4.49-2.56-1.06,0-2.62-2.64-3.15-1.92-.11.15-.33,3.81.92,3.64l6.72.85ZM158.89,393.9l-4.9.28.07,1.22,4.9-.28-.07-1.22ZM152.16,405.36c.22-.23,1.72.16,2.41-.22-2.93-3.44.84-1.64,2.25-4.36.52-1.01-4.29.75-1.4-2.99l-4.8,2.12,2.51,1.05-.97,4.39c-2.03-1.75-6.53-.77-4.91.28.15.1,1.49-.03,2.47.49.82.44,1.32,1.39,1.97,1.72,1.18.59.21-2.21.47-2.49ZM148.27,401.89l-.14-2.45-1.22.07.14,2.45,1.22-.07Z" fill="#b79c31"/>
          <path d="M157.91,376.73c-5.04-1.19-2.88-1.25-3.11-2.86-.14-1-1.01-1.91-.92-3.06.95.05,1.44-.12,2.48.44,4.31,2.28,1.36,4.25,1.55,5.48Z" fill="#b79c31"/>
          <rect x="49.53" y="310.28" width="2.45" height="1.22" transform="translate(-17.71 3.42) rotate(-3.28)" fill="#b79c31"/>
        </g>
        <g mix-blend-mode="multiply">
          <path d="M955.39,418.21c.05-2.75-2.93-1.49-4.61-.81-.63.26-1.19,7.32-2.56,2.61,1.73-2.25,1.68-2.36.77-4.6-.49-1.21-1.44-3.58.24-3.89.18-.03,3.36.74,3.43,1.02.35,1.35-2.46.45-2.08,1.79.82.9,3.56,1.78,4.02.88.27-.53-.38-10.08-.49-11.92-2.51-39.68-6.76-79.36-9.91-119.13-1.9-24.04-2.7-48.27-5.64-72.1-.13-1.04.88-4.08.15-4.47-.46-.24-7.06.59-10.27-.59-2.06-.75-3.99-2.49-5.98-4.2l-2.55.09c-1.96-.87-3.92-1.74-5.87-2.61l.21.83-3.57.9-.3-1.18,3.12-.79c-1.62-.72-3.23-1.44-4.85-2.16-.79-.09-1.34-.15-1.45-.21-.12-.06-.39-.38-.69-.74-4.73-2.11-9.46-4.21-14.19-6.31-1.37.3-2.85.56-3.34.28-.34-.19-.59-1.41-1.29-2-.62-.53-1.01-.74-1.41-.96-.25-.11-.5-.22-.75-.33-1.1-.24-1.43.83-2.92,1.26-2.26.65-7.44-2.37-10.72.18-.98-2.26,2.8-1.45,3.27-2.1.83-1.15-4.8-2.6-5.37-1.18-.53,1.33,3.32,4.14-2.66,4.5,1.02,4.58,2.38,3.98-1.18,5.36,3.69,2.69,6.81,8.82,7.62,9.28.57.32,2.08-.26,3.22.6.7.52-.05,1.7.48,2.5.71,1.1,5.06,6.01,4.83,6.34-1.27,1.84-7.16-.94-8.1-2.52-1.75-2.95-.18-7.25-3.48-3.43-.22-3.11-2.62-1.68-4.69-3.23l3.43-1.5-4.18-1.48,2.08-1.79-3.59-4.15c.76-.26,1.63-.32,2.38-.6-1.93-1.41-6.59-5.76-4.7-8.32,2.18-2.96,8.15-4.4,12.95-4.74-.15-.07-.31-.14-.46-.21-1.44-.64-2.94-1.33-3.86-2.61-.92-1.27-.97-3.32.31-4.22.9-.63,2.11-.52,3.2-.37,21.53,3.02,42.12,12.01,59.19,25.46.18.04.44.05.57.13.55.35,1,.82,1.43,1.3.12.1.26.17.38.27h-.12c.81.89,1.62,1.72,2.94,1.68-.25-7.63-.34-15.5-2-22.93-.05-12.57-1.06-25.32-3.28-37.8l-28.3.82c-30.32,4.85-60.44,17.66-82.69,39.73-2.64,2.62-16.4,18.24-16.77,20.34-.53,3.04,3.13.12,3.13,2.37-6.8-1.08-4.19,1.5-5.68,3.74-.84,1.27-1.35,2.33-1.76,2.95-.47.7-1.71.52-2.01.86-.5.56,2.86-.41-.48,3.19-2.44,2.62,1.57,5.04,1.34,5.38l-6.22.34c.78,2.81-1.64,4.63-2.65,7.03-.6,1.43-3.34,8.34-3.44,9.07-.42,3.12,2.79.04,3.13,2.37-1.47.53-3.46,1.74-4.33,2.98-2.24,3.22-5.44,19.08-6.04,23.7-4.84,37.23,4.64,71.37,23.38,103.44,20.1,34.39,60.71,78.47,96,95.08,12.01,5.65,26.86,10.65,40.35,10.42,6.57-.12,12.82-1.53,19.15-3.31l-3.25-55.58ZM926.36,168.93l.6,2.38-1.19.3-.6-2.38,1.19-.3ZM796.05,229.85l-.3-1.19,2.38-.6.3,1.19-2.38.6ZM951.38,432.51l.6,2.38-1.19.3-.6-2.38,1.19-.3ZM950.81,440.26l.3,1.19-2.38.6-.3-1.18,2.38-.61ZM948.71,436.99l-2.38.6c-1.47-.88,1.68-7.96,2.38-.6ZM942.44,432.24l-.3-1.19,2.38-.6.3,1.19-2.38.6ZM942.46,437.31l-2.38.6-.3-1.19,2.38-.6.3,1.19ZM941.54,428.67c-1.46-.74,3.69-3.97,5.35-3.89l.3,1.19-5.65,2.7ZM944.22,420.36c-.21-.81.29-1.64,1.1-1.85.82-.21,1.64.29,1.85,1.1.21.81-.29,1.64-1.1,1.84-.82.21-1.64-.28-1.85-1.1ZM950.66,394.68l.3,1.19-2.38.6-.3-1.19,2.38-.6ZM948.88,397.66l.3,1.19-2.38.6-.3-1.19,2.38-.6ZM945.29,403.69l1.24,4.7c-1.63.84-1.22-.73-2.39-1.91-.65-.66-1.89-.9-2.23-1.35-1.95-2.57,1.46-1.2,3.39-1.44ZM938.77,402.76l.3,1.19-2.38.6-.3-1.19,2.38-.6ZM938.16,399.08c.21.82-.29,1.64-1.1,1.85-.82.21-1.64-.28-1.85-1.1-.21-.81.29-1.64,1.1-1.85.81-.21,1.64.29,1.85,1.1ZM933.97,393.84l2.98,1.78c-2.42.95-2.66.81-2.98-1.78ZM934.05,239.21c-.75-.34,1.52-3.95,2.97-3.28.75.34-1.52,3.95-2.97,3.28ZM936.63,209.41c.82.38-1.74,4.02-2.97,3.28-.17-.11-.79-2.43-2.1-3.27h5.06ZM932.21,401.89l-1.19.3-.6-2.38,1.19-.3.6,2.38ZM930.77,241.31l.3,1.18-2.38.61-.3-1.19,2.38-.6ZM929.54,406.37c.18.09.12.82.3,1.19-6.64,4.74-3.49-2.71-.3-1.19ZM923.08,255.93l.3,1.19-2.38.6-.3-1.18,2.38-.61ZM919.31,277.14c-.21-.81.28-1.64,1.1-1.85.81-.21,1.64.29,1.85,1.1.21.81-.29,1.64-1.1,1.84-.82.21-1.64-.28-1.85-1.1ZM920.48,280.67c.29,2.95-2.41,2.06-3.12,2.7-1.52,1.38-.44,3.31-3.58.89l6.69-3.59ZM922.56,278.88l.6,2.38-1.19.3-.6-2.38,1.19-.3ZM920.14,269.35l.6,2.38-1.19.3-.6-2.38,1.18-.3ZM915.58,241.36l-.91-3.57c4.39-1.07,5.27,2.42.91,3.57ZM916.15,233.61c.85,2.01-1.39,1.29-2.65,1.95-1.72.9-2.95,2.4-5.08,2.54.27-3.89,4.77-3.53,7.73-4.49ZM893.43,214.03l.6,2.38-1.19.3-.6-2.38,1.19-.3ZM887.13,199.15l.3,1.19-2.38.6-.3-1.19,2.38-.6ZM870.68,225.92c2.59.22,6.63-1.67,7.4,1.93l8.78.66c2.16,5.09,1.17-.03,1.35-.39.19-.35,2.69-.77,3.85-1.28.72-.32.83-1.1,1.16-1.34.58-.43,1.55,4.54,3.38,1.01-1.14-3.17-5.63-3.08-8.21-2.35-1.91-3.25,1.47-2.46,1.78-2.99.84-1.42-2.53-.74-3.67-1.56-.21-.15-.56-3.69-2.9-4.37.75-1.25,5.64,1.4,6.29,2.16,1.27,1.48,1.38,4.26,1.91,4.51.41.19,1.49-.51,2.06-.15.68.43.52,1.64.87,2,.24.24,1.35-1.54,2.46-1.66,2.96-.29,4.54,2.86,8.06,3.47,1.65.28,3.54-.37,3.71-.29.24.12-1.26,4.99-1.4,5.23-.51.89-3.61,1.86-4.03,2.72-.31.63.48,1.75.34,2.19-.06.18-3.55-.44-3.72-.53-.41-.23-.35-1.52-.83-1.83-2.37-1.57-18.48-1.24-22.12-.93-1.25.11-.84-1.66-1.39-2.02-.44-.29-5.76.45-7.55-.15-1.64-.55-2.8-4.6-2.52-5.11.76-1.38,3.73.98,4.92,1.08ZM908.17,252.11l-1.78,2.98c-.95-2.42-.81-2.66,1.78-2.98ZM900.08,240.22l-2.38.6-.3-1.18,2.38-.6.3,1.18ZM877.25,275.16l-.9-3.57c2.97.22,3.59,1.79.9,3.57ZM868.56,260.89l.3,1.19-4.76,1.21-.3-1.18,4.76-1.21ZM862.1,200.43l.3,1.19-2.38.6-.3-1.18,2.38-.61ZM857.91,193.89l.6,2.38-1.19.3-.6-2.38,1.19-.3ZM850.23,213.57l-2.38.61-.3-1.19,2.38-.6.3,1.18ZM846.91,200.48l-.61,2.64,2.41-.57.3,1.19c-1.43,1.97-7.65-2.84-2.09-3.27ZM840.09,213.62l.6,2.38-1.19.3-.6-2.38,1.19-.3ZM837.13,216.9l.3,1.19-2.38.6-.3-1.19,2.38-.6ZM834.76,222.57l-3.57.9c.77-1.38.21-3.69.29-3.87.32-.71,3.68,1.28,3.28,2.97ZM830.83,207.09l.6,2.38-1.19.3-.6-2.38,1.18-.3ZM833.71,226.54c1.13-.55,1.16-2.71,2.54-3.09.58,5.11,3.55.19,5.52.01,1.78-.16,5,2.02,5.68,1.88.72-.15,1.47-1.55,3.22-1.62,1.64-.06,7.24.84,6.75,3.23,2.51-.09-.66-4.3.88-4.02,3.28.6,8.35,5.35,3.9,7.88-.29-3.98-5.38-1.9-8.24-2.3-4.73-.65-3.98-1.7-9.75-1.28-2.6.19-8.2-.12-10.05.47-2.16.69-3.3,4.5-2.83,6.49.22.92,3.44-.87,3.17,2.38,2.04-.14.46-2.35,1.53-3.64,1.98-2.37,5.03-.99,6.96-1.29,1.19-.18,2.17-1.8,2.43-1.59.64.53.05,3.23,3.07,1.7-.19,3.86-2.27,1.8-3.87,2.24-1.26.34-1.92,1.69-3.21,2.16-.69.25-2.11-4.71-3.64-1.68-.49.98,1.44,4.33,3.06,4.28,1.86-.05,3.35-5.28,2.52,2.38,2.53.87,3.31,4.5,5,5.29,5.48,2.57,6.43-2.91,7.03-2.47.69.5-.14,2.52.01,3.14.22.91,1.32,1.57,1.46,3.22.43,4.81-2.01,3.23-3.82,4.37-.11.07.9.35-1.33,1.63-1.29.75-.27,2.51-.15,2.55.53.15,1.84-1.23,2.59.14,2.64,4.82,5.83,4.86,6.97,7.57.36.06.96-.36,1.66-.25,3.19.51,6.71,3.95,10.27,2.29v5.07c-1.78.76-1.43-1.51-3.1-2.41-3.5-1.89-7.27-.99-8.83-4.7-6.54-1.08-5.46-2.99-9.13-5.06-.64-.36-2.07.16-3.2-.65-.33-.24-2.87-6.51-3.23-7.52-.22-.62.8-1.72.32-1.9-.64-.23-2.7,1.16-3.5.74-1.09-.59-1.48-4.52-5.76-2.22l1.78-2.98-5.05,5.08c-1.09-3.58-3.56-2.09.18-4.52-.05-2.27-1.71-4.03-2.33-5.77-.45-1.27,2.19-2.76-3.26-1.02-2.07-3.06,1.94-2.36,1.68-3.62-.4-1.98-2.15-3.08-2.26-4.27-.03-.31.7-5.84.85-6.1.64-1.16,4.51.26,5.48-.22ZM855.68,240.08c-1.39,2.81-1.92-6.39-.02-5.06.25.17.13,4.84.02,5.06ZM850.6,235.03l.3,1.19-2.38.61-.3-1.19,2.38-.61ZM848.78,227.88c.12.09.67,2.27.61,2.38-2.71,4.55-2.47-3.79-.61-2.38ZM851.8,239.79c.12.09.67,2.27.6,2.38-2.71,4.55-2.47-3.79-.6-2.38ZM827.76,264.9c-2.06-1.39,2.23-5.88,3.81-4.73,1.27.93,1.22,4.53,5.71,2.31.38,1.53-3.61,4.98-3.83,4.75-.29-.3-.09-1.66-.8-2.07-1.5-.88-2.63,2.35-1.93-3.55-3.27-1.16-1.38,4.36-2.96,3.29ZM825.35,260.44l.3,1.19-2.38.61-.3-1.19,2.38-.61ZM821.72,241.08l-.3-1.19,2.38-.6.3,1.19-2.38.6ZM824.37,231.54c-.66-.46-.38-6.76,2.36-5.67l.6,2.38c-3.09-.64-1.47,4.34-2.97,3.29ZM828.29,247.02l.6,2.38-1.19.3-.6-2.38,1.19-.3ZM837.24,252.35c.12.09.67,2.28.61,2.38-2.71,4.55-2.47-3.79-.61-2.38ZM827.6,219.32l.3,1.19-4.76,1.21-.3-1.19,4.76-1.21ZM822.27,228.27l.6,2.38-1.19.3-.6-2.38,1.19-.3ZM815.32,290.86l.3,1.19-5.95,1.51-.3-1.19,5.95-1.51ZM805.23,301.03c1.31-.72,2.42-1.03,3.59-1.5-.85-.24-1.59-.65-1.91-1.47-.18-.45-.12-.88-.03-1.29-.05,0-.14.11-.18.08-1.27-.96.82-4.67,1.47-4.18.54.4.41,1.29.12,2.16.8-.62,1.77-1.15,2.7-1.45,3.3-1.1,6.68-1.89,10.03-2.81-5.56.36-7-1.22-.04-2.41l.57,2.26c1.05-.28,2.09-.61,3.14-.88l-2.22-.49c3.36-1.42,6.73-1.56,10.08-1.36,15.34-3.24,31.04-4.61,46.72-4.18-.17-.55-.28-1.02-.18-1.21.73-1.41,5.69-1.88,7.32-1.3,2.3.82,1.11,4.48,3.39,3.64l-1.81-7.14c.92.68-1.42,2.2-2.08,1.79-.22-.13-.71-3.48-2.35-4.41l2.33-.66v-2.53c2.28.57,2.34,3.13,3.55,4.21,1.72,1.54,8.32,1.96,10.36,3.01,1.67.85,1.76,2.63,1.91,2.7.39.19,2.6-.85,3.58-.91l-.6,2.68,5.07-.02c-2.88,2.44-6.66,2.42-9.6,3.89-1.52.76-2.55,3.07-4.36,3.49-5.09,1.19-12.72-1.64-16.76-.92-.76.13-1.82.82-2.86,1.48l-2.77,2.49c-18.56,1.79-37.11,3.58-55.66,5.36-.08.04-.21,0-.3.03-1.63.16-3.27.32-4.9.47.12.37.34.78.24,1.08-.64,1.82-4.33,1.33-.25,4.13,1.6,1.1,3.37,1.02,5.02,1.85l1.43,6c-5.87-2.53-8.72-8.24-13.75-11.72ZM886.6,307l-1.19.3-.6-2.38,1.19-.3.6,2.38ZM883.63,310.29c1.96,2.05-1.39,8.13-3.25,7.16-.5-.26,1.14-2.62,1.37-3.76.37-1.82-1.88-3.15,1.88-3.39ZM878.9,321.63l-2.38.6-.3-1.18,2.38-.6.3,1.18ZM864.56,330.5c.62.45.22,3.13,3.06,1.59l-1.17,2.81-11.65-3.36c1.43-.32,9.36-1.33,9.76-1.04ZM853.88,325.44l7.46,1.91-5.76,2.09c-2.89,1.47-2.71-2.09-1.69-4ZM842.55,323.24l.6,2.38c-4.66-.42-6.21-1.28-.6-2.38ZM835.1,323.86l-.3-1.18,4.76-1.21.3,1.19-4.76,1.21ZM843.14,320.56l-.3-1.18,2.38-.6.3,1.18-2.38.6ZM847.72,353.62l.6,2.38-3.57.9c-.71-.32,1.28-3.68,2.97-3.28ZM846.75,329.78l-.9-3.57,2.38-.61.91,3.57-2.38.6ZM823.28,315.65c-.65-.17-1.34.28-1.6.17-.83-.34-.86-4.13.57-5.17,1.44-.13.8,2.81,1.56,3.32,1.44.96,6.29-1.82,5.91,3.66-.27.52-5.29-1.67-6.43-1.98ZM837.77,319.39l-4.46,2.4c-1.06-3.7,2.03-5.96,4.46-2.4ZM855.72,430.16l-.6-2.38,1.19-.3.6,2.38-1.19.3ZM858.39,425.68l1.19-.3.91,3.57-1.19.3-.91-3.57ZM860.72,409.88l-.3-1.19,2.38-.6.3,1.19-2.38.6ZM864.31,414.04l.3,1.19-2.38.6-.3-1.18,2.38-.61ZM865.82,419.99c-4.18,2.24-3.29-.86-5-1.28-2.6-.66-.94,1.21-1.28-3.46l6.27,4.74ZM863.16,424.47l-.3-1.19,3.57-.9.3,1.18-3.57.91ZM864.95,426.55l-2.38.6-.3-1.18,2.38-.6.3,1.18ZM866.76,433.7l.3,1.19c-9.58,1.97-10.75-1.38-.3-1.19ZM867.87,408.07c.07-.1,2.28-.67,2.38-.6,4.43,2.63-3.69,2.57-2.38.6ZM870.62,428.92c1.16.61,3.7.2,3.87.29,1.64.82-4.19,4.15-3.87-.29ZM873.27,419.37l-.3-1.19,3.57-.9.3,1.19-3.57.9ZM874.44,414.01l1.19-.3.6,2.38-1.19.3-.6-2.38ZM881.91,418.45l-.3-1.19,2.38-.6.3,1.18-2.38.61ZM893.65,454.76c.07.58.52,1.22.45,1.78-.7,5.32-5.64-1.25-.45-1.78ZM896.28,440.15c.12.09.67,2.27.6,2.38-2.71,4.55-2.47-3.79-.6-2.38ZM895.38,436.58l1.19-.3.6,2.38-1.19.3-.6-2.38ZM897.21,448.78l-.3-1.18,2.38-.61.3,1.19-2.38.6ZM899.64,463.38l-.3-1.19,2.38-.6.3,1.19-2.38.6ZM903.46,448.46l-.3-1.18,3.57-.91.3,1.18-3.57.91ZM907.34,448.75l2.98,1.78c-2.43.95-2.66.81-2.98-1.78ZM912.13,457.67l-.6-2.38,1.19-.3.6,2.38-1.19.3ZM928.24,461.19l-.91-3.57,1.19-.3.9,3.57-1.19.3ZM925.23,454.35c.07-.1,2.28-.67,2.38-.61,4.43,2.64-3.69,2.57-2.38.61ZM943.13,459.95l-.3-1.19,4.76-1.21.3,1.19-4.76,1.21ZM954.43,454.55c-2.3-.65-4.75-.25-7.04-.91-3.87-1.12-5.68-1.21-8.93-1.97-1.1-.26-2-1.79-3.62-1.9-.21-.01-4.15.5-4.26.69-.37.65,2.18,3.65-.28,3.87l-.02-5.06c-5.53,2.62-4.26-.21-6.67-1.51-1.2-.65-5.71-1.11-6.45-.23-.29.35,4.68,3.51-.28,3.87l-1.21-4.77-2.07,1.81-.91-3.59-4.46,2.41c-.24-4.86-6.44-5.29-9.04-7.85-.72-.71-2.14-7.82-2.87-9.35,2.24-1.4,4.69-2.97,6.79-4.55,1.04-.78,1.42-2.22,2.25-2.7,2.22-1.32,10.6-2.25,11.12-2.98.11-.16-2.05-2.97-2.21-3.08-.14-.1-1.87-.39-3.45-.63.32.09.63.22.95.31-.61-.12-1.21-.32-1.83-.44-.85-.12-1.57-.22-1.68-.21-1.96.22-1.79,2.94-4.67-.74-.21-.26-.28-.46-.4-.68-3.52-.87-7.02-1.78-10.48-2.84-1.19-.23-2.27-.46-2.38-.53-.07-.05-.08-.21-.13-.29-1.72-.55-3.43-1.1-5.14-1.69-.58,0-1.02.02-1.12.05-.28.07-4.72,2.49-4.93,2.68-.29.27.23.86.18,1.08.76-.1,2.18-.72,2.38-.6,2.27,1.41-1.21,3.37-2.66,4.48-.71-1.46-.08-2.4.28-3.87-.76.1-2.15.73-2.38.6-.16-.09-.98-3.41-.9-3.57.1-.2,2.58.57,4.45.17,1.66-.36,1.93-1.26,1.63-2.03-.57-.21-1.13-.42-1.69-.64-1.65.38-4.41,1.17-5.1,1.57-1,.58-2.2,4.18-3.76,3.32-.32-.18.62-2.02.44-3.28-.15-1.04-.97-4.45-1.45-5.79-.5-.22-1.02-.41-1.52-.64-.4.02-.82.05-1.18-.13-.81-.4-1.68-1-2.51-1.56-.72-.35-1.41-.76-2.13-1.11-1.6-.38-4.31.46-5.24-1.25-.3-.55-.21-1.07-.18-1.58-1.66-.89-3.37-1.67-5-2.61.18.33.51.56.53,1.03l-4.32-2.07.67-.84c-5.47-3.5-10.63-8.05-12.73-13.64-.78-.65-1.29-1.29-.96-1.86.01-.02.25,0,.36-.01-.11-.45-.16-.91-.23-1.37-.14.08-.33.07-.45.18.23-3.57-2.81-12.29,1.01-14.1.94-.44,2.42.47,3.74.19.88-.19,1.55-1.18,2.17-1.29.15-.03.34,0,.5,0,.88-.71,1.77-1.38,2.74-1.99l-.68-.4c.52.05,1.01-.07,1.49-.19,1-.58,2.05-.99,3.11-1.47.69-.44,1.34-.86,1.91-1.05.16-.05.32.02.48,0,.38-.14.73-.37,1.11-.49,1.39-.45,2.81-.77,4.23-1.12.19-.18.36-.29.46-.21.02.01.01.07.03.08,4.39-1.06,8.84-1.92,13.16-3.11.5-.32.96-.68,1.67-.78.24-.03.36.07.49.16,1.91-.61,3.8-1.29,5.6-2.2l-1.54.89c1.36-.05,3.26.34,4.13.26,1.47-.13,2.89-.88,4.6-.93,1.65-.05,5.83,1.07,6.65.61.52-.29,1.7-2.62,1.25-2.84-.81-.38-6.28-.01-6.86-2.06l8.33-2.11c-3.48,1.4-6.76-.89-10-1.06-5.16-.27-7.1-1.93-12.48-2.79-1.46-.23-3.58.44-3.75.36-2.91-1.33.29-2.21,1.02-2.73,1.41-1-.89-2.85,1.34-2.94l-.29,3.87c.62.32,2.76-2.31,5.26-1.37,1.4.52.91,1.77,1.35,2.09.57.42,3.57-1.1,5.21-1.04,1.28.04,5.77,3.15,8.01,3.53,3.17.53,14.58,2.52,16.66,2.58,2.03.07,6.95-2.1,7.57-1.62,4.31,3.3,2.18,1.38,7.36,2.01,1.63.2,2.92,1.97,4.92,1.12-.72,1.24-.22,3.67-.31,3.84-.2.34-1.44-.58-2.19-.45-5.65,1.03-10.83.66-16.12,1.5-8.21,1.31-18.71,7.8-26.43,9.83-5.32,1.4-13.06.52-18.55,1.82-3.37.79-7.53,3.06-11.76,3.85-.35.07-.95.07-1.58.07l-7.26,4.2c9.55,13.49,21.9,24.9,35.9,33.67,2.22-2.23,1.67.56,2.69,1.18.76.46,2.65-.94,3.39-.57.35.17.58,1.45,1.29,2.03,3.46,2.82,8.32,2.21,12.43,2.97,3.97.73,7.69,3.79,11.73-.17l.02,5.06c1.46-.97,3.44,0,4.37-.25,2.8-.75,8.03-7.44,9.02-6.94l-1.48,4.17c4.19-1.83,1.37,1.91,1.79,2.08.27.1,4.8-.07,5.68-.17,1.12-.12,5.21-1.1,5.33-1.35.33-.68-1.62-3.13-.29-3.72,4.44,4.97,2.92,1.44,5.25,1.3,1.61-.1,3.27,2.9,5.77,2.28,1.19-.3,2.52-1.63,2.51-2.64-.02-1.85-4.78-2.49,1.66-3.51.4.23.07,4.57-.16,4.96-1.63,2.92-8.04.82-3.38,6.08-4.24,1.8-.76-1.52-3.08-2.4-1.01-.38-5.59-1.47-6.31-1.41-2.1.2-6.15,4.78-9.67,3.57.07,2.24,2.16.33,2.68.58,1.69.83-4.64,2.39-.44,3.29,1.76.38,6.76-.48,7.6-.04.82.43.09,3.44-.96,4.02-.59.33-3.35-.49-5.58.17.05,1.57-.5,1.6-2.08,1.79.25,2.99.93,1.68-2.11,4.21-1.09.08-2.2-1.79-2.35-1.81-.85-.14-2.09,4.63-2.99-1.78l-4.75,3.77c-1.17.3-.71-1.74-1.25-2.17-.74-.6-3.8,2.92-5.61,2.62-1.25,3.13,4.49,1.52,3.29,2.96-1.45,1.74-7.91-2.21-5.65,2.7l5.95-1.5c.45.22-1.65,3.12.57,4.98.23.19,5.3,2.06,5.59,2,.58-.12,2.19-2.11,2.79-1.65.71.54-.43,4.15,4.19,4.01l-1.96-5.2c2.75-3.53,2.39,1.74,3.27,2.22,3.96-1.82,2.69,4.86,3.76,5.51.29.17,5.04-1.36,6.54-1.64,2.17-.41,4.01.7,6.56-1.68,1.27,2.97.1,2.38-2.15,3.34-1.86.79-4.81.24-4.09,2.04,3.58-.9,7.26,1.74,10.28,2.27,3.98.69,6.4-2.6,5.54,5.13ZM875.1,341.61c.17-.25,4.84-.13,5.06-.02,2.81,1.39-6.39,1.92-5.06.02ZM923.27,401.62l-2.38.6c.42-4.66,1.28-6.21,2.38-.6ZM918.22,406.7c-.82,1.64-4.15-4.19.29-3.87-.61,1.16-.2,3.7-.29,3.87ZM917,396.88l2.98,1.78c-2.42.95-2.66.81-2.98-1.78ZM912.84,400.46l-.3-1.18,2.38-.61.3,1.19-2.38.6ZM914.65,407.61l-2.38.6-.3-1.19,2.38-.6.3,1.19ZM892.87,401.73l-2.38.6-.3-1.18,2.38-.61.3,1.19ZM936.77,429.88l-.3-1.19,2.38-.6.3,1.19-2.38.6ZM938.28,435.84l-1.78,2.98c-.95-2.42-.81-2.66,1.78-2.98ZM933.2,430.79c-.72,1.8-2.35-2.69-2.39-4.46l3.57-.9c.66.3-.92,2.05-1.16,2.85-.33,1.06.05,2.35-.02,2.51ZM928.74,433.19c.07-.1,2.27-.67,2.38-.61,4.43,2.64-3.69,2.57-2.38.61ZM927.85,434.68l-1.19.3-.6-2.38,1.19-.3.6,2.38ZM922.48,433.5l-.6-2.38,1.19-.3.6,2.38-1.19.3ZM923.39,437.07l-3.57.91-.3-1.19,3.57-.9.3,1.18Z" fill="#dbaf57"/>
          <path d="M902.74,410.63c-1.71-.1-.75,1.84-.8,2.57.3.11.62.19.92.3-.16-.85.09-1.58-.12-2.87Z" fill="#dbaf57"/>
          <path d="M900.06,410.05c-.63-.3-1.55.63-2.43,1.34.81.34,1.6.71,2.41,1.03-.6-1.03.31-2.23.02-2.37Z" fill="#dbaf57"/>
          <polygon points="850.95 251.41 847.08 251.13 853.05 254.68 851.54 248.73 850.95 251.41" fill="#dbaf57"/>
          <path d="M899.04,286.11c.16.09,3.48-.75,3.57-.91.09-.16-.75-3.47-.91-3.57-1.5-.91-4.21,3.56-2.67,4.48Z" fill="#dbaf57"/>
          <path d="M860.39,398.56l.25-.13c-.12-.06-.23-.12-.34-.18.04.1.06.21.1.31Z" fill="#dbaf57"/>
          <path d="M873.94,352.04c2.52,2.42,1.92-1.68,1.88-2.6l-2.17,1.25c.08.53.07,1.12.29,1.34Z" fill="#dbaf57"/>
        </g>
      </g>
    </g>
  </g>
</svg>